<svg width="69" height="94" viewBox="0 0 69 94" fill="none" xmlns="http://www.w3.org/2000/svg">
<path fill-rule="evenodd" clip-rule="evenodd" d="M45.571 26.4264L45.5714 26.4243L46.5054 23.4388L43.9641 21.5211H47.0691L48.0946 18.5804L49.1197 21.5211H52.2247L49.6838 23.4388L50.6158 26.4173L48.0999 24.6503L45.5726 26.4255L45.571 26.4264ZM56.6245 26.4276L56.6254 26.4255L57.5598 23.4388L55.021 21.5211H58.1247L59.1486 18.5804L60.1733 21.5211H63.2783L60.7382 23.4388L61.6706 26.4136L59.156 24.6503L56.6266 26.4264L56.6245 26.4276ZM6.57599 26.4859L6.57681 26.4838L7.51286 23.4971L7.52477 23.4856L4.98348 21.5807H8.08845L9.114 18.6399L10.1379 21.5807H13.242L10.702 23.4971L11.6343 26.4826L9.10701 24.7094L6.57763 26.4851L6.57599 26.4859ZM17.5737 26.4859L17.5745 26.4838L18.509 23.4971L18.5192 23.4856L15.9796 21.5807H19.0854L20.1097 18.6399L21.134 21.5807H24.239L21.6977 23.4971L22.6317 26.4826L20.1035 24.7094L17.5754 26.4851L17.5737 26.4859ZM33.7275 18.6108C33.6934 18.6395 33.6585 18.6682 33.6232 18.6974L33.5645 18.7458L33.5354 18.7696L33.5263 18.7766L33.5226 18.7795C33.2784 18.9815 33.0263 19.1896 32.7746 19.4278C34.1565 19.7303 35.4153 20.3441 36.5151 21.2506L36.52 21.2485C36.7438 20.9993 36.9716 20.7616 37.3157 20.4102C36.2409 19.5226 35.0671 18.9335 33.7275 18.6108H33.7275ZM31.7585 20.4389H31.7581C31.4634 20.7731 31.2121 21.0741 31.0109 21.3323C32.4232 21.625 33.7612 22.2761 34.8799 23.2146L34.8869 23.2118C35.0934 22.9416 35.35 22.605 35.6168 22.2864C34.4755 21.345 33.069 20.6713 31.7585 20.4389L31.7585 20.4389ZM30.2038 22.4514H30.2034C30.0002 22.754 29.6582 23.3091 29.62 23.3715L29.6032 23.399L29.59 23.4199L29.5847 23.4277C29.5711 23.4495 29.5642 23.4602 29.5642 23.4622C30.9695 23.7225 32.2992 24.3486 33.4093 25.2723C33.6245 24.9554 33.8416 24.6405 34.0728 24.3104C33.2952 23.6589 31.9925 22.8062 30.2038 22.4514L30.2038 22.4514ZM27.6859 35.9638C27.5258 35.9621 27.3447 35.9067 27.3254 35.8078C27.7241 33.9931 28.7205 30.3779 30.912 26.5512C31.3365 26.7868 31.7286 27.0483 32.1112 27.3505C32.1982 27.199 32.3115 27.0188 32.4425 26.8098L32.4778 26.7527L32.6769 26.4313C31.5594 25.5387 30.2851 24.9525 28.89 24.6897L28.8859 24.6996C28.6445 25.1672 28.4992 25.4648 28.42 25.6328C28.42 25.6323 28.4204 25.6323 28.4208 25.6323C28.4228 25.6323 28.4278 25.6336 28.4343 25.6348C28.661 25.6804 29.1191 25.7851 29.6426 25.9727C27.5463 30.439 26.997 34.5108 26.8788 35.6522C26.3344 34.7728 25.9062 32.7787 25.751 31.653C25.1303 27.084 26.1903 23.059 28.8166 20.0132C31.4761 16.9287 35.5454 15.1273 39.9818 15.0706H40.0413C40.486 15.0706 40.6896 15.1424 40.7413 15.1642C40.5512 15.2402 38.8282 15.9364 36.8727 17.4222C36.8682 17.4206 36.3768 17.2206 35.8566 17.088C35.6378 17.2313 35.2289 17.499 34.8623 17.7613C35.7121 17.9691 36.9918 18.4367 38.2604 19.4787C38.567 19.1859 38.845 18.9302 39.0856 18.7183C38.8417 18.5163 38.3786 18.1842 37.9381 17.9342C39.7634 16.1368 41.0796 15.4463 41.0907 15.4413L41.0743 15.4364L41.08 15.4348L41.0903 15.4344H41.1005C41.3649 15.4344 41.5152 15.8051 41.5649 15.927C42.723 18.7857 42.9262 22.2072 42.1228 25.3142C41.2311 28.7111 38.1807 34.6106 27.775 35.9584C27.7438 35.9621 27.7146 35.9638 27.6859 35.9638H27.6859ZM45.571 36.3049L45.5714 36.3029L46.5054 33.3174L43.9641 31.401H47.0691L48.0946 28.4614L49.1197 31.401H52.2247L49.6838 33.3174L50.6158 36.2963L48.0999 34.5293L45.5726 36.3037L45.571 36.3049ZM56.6245 36.3062L56.6254 36.3037L57.5598 33.3174L55.021 31.401H58.1247L59.1486 28.4614L60.1733 31.401H63.2783L60.7382 33.3174L61.671 36.2939L59.156 34.5293L56.6266 36.3049L56.6245 36.3062ZM6.57599 36.3649L6.57681 36.3628L7.51286 33.3769L7.52477 33.3654L4.98348 31.4597H8.08845L9.114 28.5197L10.1379 31.4597H13.242L10.702 33.3761L11.6343 36.3616L9.10701 34.5872L6.57763 36.3637L6.57599 36.3649ZM17.5737 36.3649L17.5745 36.3628L18.509 33.3769L18.5192 33.3654L15.9796 31.4597H19.0854L20.1097 28.5197L21.134 31.4597H24.239L21.6977 33.3761L22.6317 36.3616L20.1035 34.5872L17.5754 36.3637L17.5737 36.3649ZM45.1711 42.2316V45.8534L46.9467 46.7842V69.1307L44.8653 70.8356V74.4119L44.8402 74.5047L59.6581 70.5557V61.3569H56.212L55.5202 66.8611L51.9111 67.8366V46.7842L53.5565 45.8535V42.2316H45.1711V42.2316ZM15.2049 55.6368L21.2941 73.6224L25.5039 74.8812L25.5047 46.7722L27.1522 45.8029V42.2279H19.2607V45.8029L20.9882 46.7722L20.9895 60.4714L15.0365 42.1868H8.63775V45.7619L10.6256 46.7439V66.6206L8.68578 67.378V70.4941L17.141 72.647L17.1406 68.989L15.2003 67.5069L15.2036 55.6372L15.2049 55.6368ZM28.895 42.1918V45.8144L30.7285 46.7439V71.7959L28.8822 72.5522V75.5865L37.2677 78.7161L37.2689 75.139L35.5984 73.1462V59.28H38.4209L39.4744 60.797H41.7094V53.3057H39.4744L38.3798 54.9048H35.605V46.4841H39.3093L40.2786 49.4708H43.4776V42.1918H28.895V42.1918ZM34.1627 83.7367H34.1623H34.0453C34.0338 83.7227 32.9134 82.3671 30.4998 80.8567C28.2397 79.4424 24.3268 77.5678 18.5196 76.6695C15.6359 76.2229 13.1936 75.5339 11.2612 74.6221C9.6941 73.884 8.45014 72.9951 7.56377 71.9794C6.17078 70.384 6.0431 68.9147 6.05296 68.3568C6.05378 68.3457 6.05378 68.3371 6.05378 68.3301V39.2802H62.1542V68.3301V68.3518V68.3621C62.169 68.9245 62.0532 70.4046 60.6619 71.9979C59.7808 73.0095 58.5365 73.895 56.9645 74.6311C55.0284 75.5389 52.5803 76.2245 49.6875 76.6695C43.9042 77.5612 39.9912 79.4358 37.7271 80.8518C35.2847 82.3765 34.1734 83.7231 34.1631 83.7363L34.1627 83.7367ZM2.29029 12.8533V68.248C2.29111 69.434 2.58712 71.7787 4.55528 74.1582C5.72123 75.566 7.30759 76.7713 9.27123 77.7419C11.6454 78.9148 14.5989 79.7568 18.0495 80.2446C23.9635 81.0997 28.3493 82.9928 31.4584 86.0312C32.4717 87.0034 33.365 88.0872 34.1147 89.2515C34.8692 88.093 35.7642 87.0091 36.7742 86.0312C39.9354 82.9858 44.3209 81.0932 50.181 80.2446C56.5084 79.3327 61.0297 77.2763 63.6194 74.1315C65.7321 71.5652 65.8894 69.0686 65.9411 68.2484V12.8532L65.9169 12.9013C65.7945 12.9945 64.6672 13.8332 62.8041 14.6572C60.9936 15.4586 58.0914 16.4135 54.5496 16.4135C52.8906 16.4135 51.2148 16.2049 49.5701 15.794C43.8159 14.3538 39.9013 11.4061 37.6314 9.18623C35.265 6.87239 34.1643 4.88944 34.0465 4.67103C33.7599 5.19242 32.6535 7.05918 30.4821 9.18992C28.2175 11.4118 24.3038 14.3604 18.52 15.794C16.9201 16.1943 15.289 16.3971 13.671 16.3971C10.1518 16.3971 7.24476 15.4335 5.42521 14.6252C3.45089 13.7486 2.30793 12.8672 2.29027 12.8532L2.29029 12.8533ZM34.1742 93.123L34.1734 93.1218C34.0909 92.9789 32.1231 89.5935 30.0581 87.6303C27.2269 84.8829 23.1876 83.1668 17.7092 82.3851C10.8716 81.397 5.92529 79.1139 3.00753 75.5992C0.761837 72.8058 0.290527 70.0921 0.290527 68.3075V10.6786H2.52473C4.91986 12.3737 8.80199 14.394 13.6974 14.394C15.1757 14.394 16.6796 14.2081 18.1678 13.8414C24.5949 12.2567 28.6019 8.59957 30.8315 5.81072C33.2205 2.82235 34.1254 0.191973 34.1627 0.081543C34.1705 0.105353 35.0819 2.80429 37.4853 5.81524C39.7121 8.60491 43.7182 12.2625 50.1576 13.8414C51.6303 14.2097 53.1251 14.3961 54.6018 14.3961C59.9155 14.3961 63.8247 12.0589 65.6825 10.6659L65.7646 10.7246H68.0115V68.3543C68.0115 69.8113 67.6585 72.6835 65.2941 75.5528C62.3464 79.1028 57.4001 81.4015 50.5924 82.3852C45.1174 83.1865 41.078 84.9026 38.244 87.6303C36.2553 89.5492 34.1956 93.0861 34.1751 93.1218L34.1742 93.123Z" fill="#97A3B7"/>
</svg>
