<svg width="108" height="67" viewBox="0 0 108 67" fill="none" xmlns="http://www.w3.org/2000/svg">
<path fill-rule="evenodd" clip-rule="evenodd" d="M51.0073 3.2768L51.2322 2.13922H52.7113C52.7906 2.18146 52.8678 2.27371 52.8975 2.33868L52.7512 3.07733C52.6842 3.15904 52.5117 3.27679 52.486 3.27679L51.0073 3.2768ZM38.1827 4.22334H37.0087C37.1112 4.03995 37.2167 3.85135 37.3201 3.66874L37.3986 3.52882L37.4434 3.44899L37.4522 3.43347L37.5126 3.32614C37.6341 3.11038 37.7742 2.8598 37.9086 2.61987L38.1831 4.22301V4.22334H38.1827ZM76.4159 4.22334H75.2437C75.3887 3.96179 75.5448 3.68427 75.6823 3.43968L75.6912 3.42394L75.7222 3.3675C75.8739 3.09952 76.0074 2.86213 76.1422 2.61987L76.4172 4.22301V4.22334H76.4159ZM47.144 5.22044H45.8663C45.7638 5.13252 45.6791 5.02929 45.6139 4.91321L46.1062 2.42196C46.2384 2.27982 46.4096 2.15664 46.4894 2.10608H47.7676C47.8731 2.18813 47.9609 2.29468 48.0199 2.4132L47.5276 4.91321C47.4123 5.02663 47.2269 5.16833 47.1445 5.22044H47.144ZM48.6151 21.2885C48.6071 21.1647 48.6444 21.0435 48.7211 20.9467C48.9979 21.0466 49.3504 21.135 49.4808 21.1475C49.5234 21.1508 49.5646 21.1634 49.6015 21.1841C49.6041 21.1975 49.6055 21.2088 49.6055 21.219C49.6055 21.4797 49.4028 21.6987 49.1433 21.7169C49.1314 21.7175 49.1198 21.7175 49.1074 21.7175C48.8608 21.7175 48.6497 21.533 48.6151 21.2885L48.6151 21.2885ZM63.2009 22.7244L63.3122 22.3889L63.4768 22.1068L63.8542 21.9538L64.1478 21.9814C64.1482 21.9818 64.1487 21.9822 64.1491 21.9834L64.1509 21.9857L64.1531 21.9894L64.1576 21.9957C64.2139 22.0782 64.2458 22.121 64.2556 22.1301C64.26 22.1341 64.2631 22.1398 64.2636 22.1463C64.2658 22.1723 64.2418 22.2114 64.2241 22.2306L64.2192 22.2368C64.1935 22.2666 64.1416 22.3292 64.0383 22.3681C63.9899 22.3856 63.9132 22.4132 63.8374 22.4397L63.8081 22.4511C63.7101 22.4857 63.6378 22.5122 63.6098 22.5228C63.5646 22.5398 63.3854 22.6309 63.2772 22.6854L63.275 22.6865L63.2621 22.6933L63.2377 22.7059C63.2147 22.7173 63.2036 22.7232 63.2009 22.7244L63.2005 22.7246L63.2009 22.7244ZM56.823 23.2863L52.9956 22.5012L53.4311 21.9906C53.4386 21.9883 54.209 21.733 54.209 21.7051C54.2067 21.6684 54.2023 21.5861 54.1957 21.4465C54.1957 21.4379 54.1957 21.4343 54.1957 21.4337L54.2143 21.422C55.3266 20.7529 57.199 19.6309 57.2421 19.6309C57.2501 19.6453 57.3175 20.2251 57.4323 21.2632L57.4385 21.3165V21.3195L56.8234 23.2863L56.823 23.2863ZM72.5858 37.7934H49.0205L49.0218 37.7916C49.1189 37.6888 49.2369 37.4637 49.275 37.3898L49.2773 37.386L49.2835 37.3746L49.2959 37.3509L49.3025 37.3387L49.307 37.3305C49.3119 37.3199 49.3176 37.3089 49.3229 37.2972L49.3336 37.2784L49.3345 37.2762L49.3385 37.2696C49.3788 37.1916 49.4303 37.0945 49.4489 37.0499C49.4737 36.9905 49.6392 36.6559 49.6578 36.6178L49.6622 36.6088C49.6751 36.5791 49.7008 36.5247 49.7283 36.493C49.7398 36.4802 49.7531 36.4598 49.7691 36.4364V36.4353L49.7722 36.431L49.7802 36.4197L49.7824 36.4152C49.8134 36.3667 49.8472 36.3164 49.8826 36.2761C49.9008 36.2549 49.9301 36.2208 49.958 36.1869L49.9638 36.1801L49.9815 36.1593L49.9824 36.1585C50.0476 36.0811 50.1465 35.9638 50.1949 35.9231L50.2166 35.9044L50.2179 35.903L50.2201 35.9014C50.2875 35.8441 50.3709 35.7726 50.4108 35.7147C50.4361 35.6772 50.4778 35.6228 50.5386 35.5479L50.5434 35.5427L50.5461 35.5415C50.6459 35.5172 50.7111 35.503 50.7466 35.4969C50.8095 35.4863 50.9497 35.4399 51.0096 35.4168C51.049 35.4017 51.0193 35.3159 50.9914 35.2326C50.9772 35.1949 50.9617 35.1478 50.9559 35.1135C51.0615 35.0389 51.3568 34.8731 51.5045 34.8118C51.6353 34.7591 52.1001 34.5098 52.1919 34.4604L52.1981 34.4574L52.2181 34.4464C52.8288 34.1224 53.8848 33.5603 54.1016 33.4373C54.3305 33.3088 54.7048 33.0071 54.8143 32.9177L54.8201 32.9134C54.8201 32.9141 54.8201 32.9154 54.8201 32.9173L54.8197 32.9207C54.8192 32.9238 54.8192 32.9277 54.8174 32.9337C54.7727 33.318 54.7438 33.6348 54.7358 33.8253C54.7341 33.8899 54.7181 33.9985 54.7021 34.1057V34.1072L54.699 34.119L54.6968 34.1409L54.6933 34.1582L54.6911 34.1787C54.6884 34.1979 54.6857 34.2164 54.6844 34.2306L54.684 34.2358V34.2397C54.6755 34.3042 54.6591 34.4558 54.6463 34.4986C54.605 34.5814 54.5438 34.6553 54.4706 34.7125C54.4116 34.7491 54.3376 34.8521 54.3376 34.9151C54.3376 34.9302 54.3363 34.9555 54.3354 34.9828L54.3349 34.9922L54.3345 35.0032L54.3323 35.0351L54.3318 35.0413C54.3292 35.1001 54.3225 35.2373 54.3274 35.3109C54.3345 35.4168 54.3012 35.5946 54.3008 35.5959V35.5976L54.2365 35.7491C54.2365 35.7494 54.236 35.7502 54.2347 35.7513L54.2316 35.7551L54.2294 35.7593C54.1047 35.9459 54.0143 36.0796 53.9912 36.1082C53.9557 36.1532 53.938 36.2844 53.9309 36.3406L53.9304 36.3418L53.9287 36.3558L53.9273 36.3631C53.9189 36.4143 53.9056 36.4995 53.9327 36.5414C53.9424 36.5551 53.9642 36.5796 53.9828 36.6016L53.9837 36.6023L53.9925 36.6121L53.9974 36.6181L53.9983 36.6193C54.0555 36.6844 54.1123 36.7496 54.1158 36.7748C54.1243 36.8169 55.1829 36.8647 55.1936 36.865L55.3572 36.8468C55.3643 36.8454 55.5382 36.8093 55.5404 36.78C55.5413 36.7463 55.579 36.1464 55.5914 36.0965C55.5967 36.07 55.6211 36.0066 55.6499 35.932L55.6526 35.9244L55.6619 35.8987L55.6641 35.8946L55.6672 35.884C55.6823 35.8451 55.6951 35.8109 55.7018 35.7892L55.7036 35.7846L55.7049 35.7815L55.7053 35.7789C55.7062 35.7767 55.7067 35.7739 55.708 35.771L55.7102 35.7649L55.7124 35.7577L55.7147 35.7506L55.716 35.7478C55.7178 35.7423 55.7191 35.7366 55.7217 35.7306L55.724 35.723L55.7253 35.7184C55.7479 35.6488 55.7892 35.52 55.8127 35.4735L55.8175 35.4625L55.8189 35.4599L55.8229 35.452L55.8242 35.4489C55.8499 35.3979 55.8712 35.3574 55.8827 35.343C55.8974 35.327 55.9093 35.2787 55.9125 35.2229C55.9133 35.128 55.908 35.0333 55.8974 34.9426L55.8952 34.9238C55.8557 34.6297 55.8588 34.4202 55.9018 34.3017C55.9745 34.1031 56.2814 33.3927 56.4309 33.1174C56.4854 33.0174 56.575 32.8904 56.6793 32.7435L56.6815 32.7403L56.6832 32.738L56.6974 32.7179L56.6996 32.7158L56.7028 32.7113C56.881 32.4598 57.0833 32.1747 57.2066 31.9026C57.3773 32.0572 57.4447 32.1025 57.4767 32.124L57.4793 32.1264C57.4864 32.131 57.4944 32.1362 57.5019 32.1433C57.525 32.1622 57.5596 32.1906 57.5924 32.1906C57.6057 32.1906 57.6181 32.1862 57.6279 32.1776C57.6811 32.1327 57.7703 32.0152 57.8066 31.9669C57.8213 31.9464 57.8541 31.9026 57.8882 31.8544L57.8922 31.85C57.8931 31.8481 58.035 31.6511 58.0692 31.611C58.1153 31.5475 58.1415 31.4686 58.1415 31.3889C58.137 31.3225 58.1326 31.1926 58.1326 31.1918L58.1339 31.1893C58.1339 31.1884 58.137 31.1843 58.1392 31.1771L58.1428 31.1691C58.2843 30.8348 58.6191 30.0501 58.675 29.9814C58.71 29.9383 58.7584 29.9016 58.8094 29.8627L58.8129 29.86L58.8165 29.857C58.8622 29.8229 58.9185 29.7806 58.9699 29.7272C59.001 29.6948 59.0369 29.6526 59.0746 29.6078L59.0905 29.5897L59.0999 29.5783L59.1039 29.5734C59.1917 29.4679 59.3119 29.3236 59.4666 29.1752C59.7128 28.9372 60.4091 28.2375 60.5869 28.0213C60.7452 27.8283 60.9918 27.4626 61.0393 27.3915L61.0415 27.3885L61.0442 27.3854L61.8128 27.4753L62.1591 26.2388L62.1605 26.2312L62.1658 26.2117C62.2904 25.7027 62.6993 24.0345 62.737 23.9268C62.9725 23.9249 63.5202 23.88 63.683 23.8659L63.6888 23.8655C63.6927 23.8653 63.695 23.8653 63.6954 23.8653L63.7012 23.8647C64.1757 23.8432 65.3 23.788 65.4685 23.7474C65.5874 23.7186 65.8894 23.4179 66.3205 22.901C66.3245 22.8959 66.3285 22.8919 66.3311 22.8888C66.3342 22.8852 66.336 22.8831 66.3373 22.8812L66.3404 22.8783C66.3688 22.8512 65.9799 21.1599 65.9746 21.1433L65.9346 20.9811C65.936 20.9804 66.0544 20.8924 66.0859 20.8571C66.0965 20.8444 66.1143 20.8293 66.1382 20.8091L66.1422 20.805C66.1799 20.7729 66.218 20.7398 66.2136 20.7222C66.2074 20.7022 64.6973 18.1603 64.4915 18.0299C64.2897 17.9022 63.1007 17.0201 63.0909 17.013L63.0896 17.0119L63.1211 16.7259L63.263 16.6186L63.4466 16.4803L63.5322 15.754L63.6919 15.6096L63.6249 15.2701L63.773 15.2222C63.773 15.2211 63.7726 14.9893 63.7593 14.8584C63.7384 14.6751 63.6861 14.2397 63.6484 14.1554C63.6227 14.0998 63.5881 13.9996 63.5606 13.9186L63.5579 13.9128L63.5548 13.9029L63.5482 13.8827L63.5468 13.8794C63.5358 13.8473 63.5278 13.8239 63.522 13.8107C63.3637 13.5294 63.1402 13.2832 62.8754 13.0983C62.4634 12.8116 62.2514 12.7966 62.2133 12.7966H62.207L62.1875 12.7951L62.1662 12.7933H70.7728L67.2474 30.398H74.0684L72.5858 37.7934V37.7939L72.5858 37.7934ZM29.487 37.7939L20.7115 37.7934L24.2865 19.9373L15.8933 12.7933H39.7873L40.4539 25.0094L46.0082 12.7933H61.0171L61.0123 12.7951C60.7546 12.8913 60.4512 13.0731 60.335 13.2004C60.2157 13.3308 60.1266 13.4384 60.1097 13.4666C59.9372 13.7332 59.9213 14.4585 59.9204 14.6014L59.8166 14.6711L59.8756 15.1954L59.7394 15.2234L59.8153 15.9464L60.237 16.2697L60.2206 16.47C60.1958 16.4716 57.6474 16.6395 57.5516 16.7011C57.4638 16.7581 54.0391 19.7265 53.3539 20.3208L53.3464 20.3272L53.3016 20.3666L53.0763 20.1443L52.4146 20.8077L50.8215 21.9497L50.8202 21.9489L50.818 21.9481C50.7643 21.927 50.6637 21.8866 50.5989 21.8522C50.5169 21.8065 50.4033 21.6608 50.2685 21.4302C50.135 21.2042 50.0148 21.0384 49.6786 20.9642C49.648 20.9573 49.6157 20.9505 49.5842 20.9438L49.5407 20.9347L49.5376 20.9344L49.4884 20.9241L49.487 20.9236L49.4848 20.9234L49.4755 20.9213C49.1824 20.861 48.8519 20.7928 48.7154 20.6958C48.6173 20.625 48.4767 20.4739 48.3526 20.3399L48.3503 20.3378C48.2825 20.2644 48.1902 20.1638 48.1468 20.1314C47.9893 20.0137 47.7951 19.9491 47.5982 19.9491C47.5849 19.9491 47.5711 19.9495 47.5543 19.9502C47.2514 19.9546 46.9702 20.0943 46.7848 20.3341C46.4761 20.7407 46.3528 21.262 46.4455 21.7642C46.5675 22.4578 46.8921 22.6623 47.015 22.739L47.0199 22.7428C47.1148 22.8101 47.227 22.8461 47.3436 22.8461C47.3671 22.8461 47.3924 22.8441 47.4186 22.8406C47.5405 22.8239 47.6634 22.7942 47.7836 22.7522C47.8394 22.7333 47.9437 22.6743 48.0261 22.6271L48.0293 22.626L48.0319 22.6238L48.035 22.6221L48.0368 22.621L48.0559 22.6101L48.0643 22.606C48.0714 22.6021 48.0776 22.5988 48.0838 22.5949L48.0856 22.5939C48.2058 22.5178 48.3446 22.4746 48.4869 22.4698C48.4963 22.469 48.5056 22.469 48.5153 22.469C48.7109 22.469 48.9947 22.5378 49.1149 22.5673L49.118 22.5681C49.1424 22.5734 49.1642 22.5795 49.1877 22.5858L49.1886 22.5866C49.2932 22.6135 49.401 22.6415 49.5367 22.6415C49.5664 22.6415 49.5975 22.64 49.6325 22.637C49.8188 22.6181 49.978 22.5648 50.0684 22.4902C50.0724 22.4868 50.0764 22.4835 50.0813 22.4793L50.0871 22.4744C50.1509 22.4198 50.2485 22.3379 50.4592 22.3379C50.5009 22.3379 50.5421 22.3407 50.5838 22.3461C50.4765 22.4641 50.4317 22.6332 50.4751 22.758C50.5022 22.8373 50.6051 22.9189 50.7297 22.9189C50.7865 22.9189 50.841 22.9013 50.8911 22.866C50.9483 22.9821 51.0189 23.0894 51.1568 23.0894C51.1852 23.0894 51.2184 23.0845 51.2544 23.075C51.3169 23.1843 51.4335 23.252 51.5599 23.252C51.5732 23.252 51.587 23.2514 51.6007 23.2498C51.6744 23.3603 51.7848 23.4316 51.8832 23.4316C51.9067 23.4316 51.9285 23.4274 51.948 23.4194C51.9892 23.4009 52.0668 23.3472 52.2017 23.194L52.2048 23.1904C52.2287 23.1639 52.2234 23.0484 52.2221 23.0251C52.2256 23.0233 52.6452 22.8251 52.6869 22.7703C53.6342 22.9656 55.8867 23.4399 56.556 23.5805L56.5959 23.5887L56.6549 23.6015L56.0034 26.2153L56.4988 26.5276L56.4979 26.5355C56.4899 26.6853 56.4446 27.4412 56.442 27.6497C56.442 27.7568 56.4349 27.8387 56.4296 27.9039V27.9055L56.4291 27.9184L56.4282 27.921V27.9282L56.4273 27.9306C56.4211 28.0027 56.414 28.0847 56.4185 28.1823C56.2663 28.3441 55.1749 29.4439 55.1084 29.493C55.0476 29.538 55.0441 29.5636 55.041 29.5907V29.5969C55.0365 29.6286 55.0893 29.6982 55.1917 29.7988C54.8729 30.1658 54.4156 30.7033 54.1708 30.9911C54.1389 31.0285 54.1145 31.0571 54.0994 31.0751L54.0945 31.0814C54.0861 31.0901 54.0817 31.0953 54.0817 31.0958C54.0737 31.0943 54.0462 31.0892 53.9974 31.0892C53.9304 31.0892 53.8564 31.0984 53.7774 31.1166C53.6337 31.1468 53.5016 31.2247 53.4058 31.3357C53.3149 31.4407 50.853 33.7278 50.6694 33.854C50.6375 33.8489 50.5998 33.8464 50.5581 33.8464C50.1132 33.8464 49.232 34.1189 49.1912 34.1557C49.1562 34.1843 49.1029 34.2515 49.0821 34.2791L49.0808 34.2807L48.9592 34.5084L48.906 34.8187L48.9105 35.4238C48.9096 35.4261 48.7778 35.6704 48.6958 35.7576C48.6501 35.8063 48.5477 35.9307 48.3911 36.1271L48.3827 36.1376L48.38 36.1403C48.3787 36.142 48.3787 36.1426 48.3787 36.1426L48.3778 36.1445C48.2865 36.2786 47.9844 36.7315 47.9334 36.9235C47.9037 37.0344 47.9161 37.6863 47.9884 37.7624C47.9999 37.7749 48.0124 37.7848 48.0257 37.7919L48.0283 37.7931L46.2982 37.7933L48.9344 24.6254L42.4416 37.7933H33.3454L32.1244 24.6254L29.487 37.7938V37.7943L29.487 37.7939ZM91.3343 37.8253V37.8249L91.3339 37.8253H74.3345L79.3399 12.8258H89.5204L85.9955 30.4301H92.816L91.3343 37.8248L91.3343 37.8253ZM47.3378 47.9932L47.7263 46.0198H50.1718C50.3057 46.1039 50.4108 46.2232 50.4778 46.3651L50.225 47.6477C50.1079 47.7937 49.8259 47.9932 49.7833 47.9932L47.3378 47.9932ZM34.2191 49.635H32.2775C32.4358 49.3424 32.6323 48.9806 32.8882 48.5111L32.8939 48.5009L32.9658 48.3697L33.0341 48.2439C33.3064 47.7448 33.5539 47.2908 33.7894 46.8557L34.2196 49.6345V49.635L34.2191 49.635ZM56.8819 51.3627H54.7682C54.6711 51.2934 54.4724 51.0509 54.3549 50.8296L55.2064 46.5089C55.3993 46.3027 55.6144 46.1185 55.8464 45.9619H57.9605C58.1357 46.106 58.2785 46.29 58.3743 46.495L57.5201 50.8296C57.3228 51.025 57.1086 51.2042 56.8828 51.3627H56.8819ZM59.0742 4.76618L60.5311 5.77248L60.0139 4.14772L61.4322 2.99762L59.6835 2.99973L59.0742 1.28261L58.4643 2.99973L56.717 2.99762L58.1339 4.14772L57.6164 5.77248L59.0742 4.76618ZM68.8099 6.14935H72.2341L72.427 5.17798H70.0614L70.2676 4.13132H72.5548L72.7468 3.16017H70.4601L70.6624 2.13846H73.0275L73.22 1.16686H69.7944L68.8099 6.14935ZM88.1353 6.14935H91.5601L91.7521 5.17798H89.3865L89.5931 4.13132H91.8798L92.0727 3.16017H89.7856L89.9874 2.13846H92.353L92.5455 1.16686H89.1195L88.1353 6.14935ZM74.7288 5.19494H74.7292H76.5467L76.7064 6.15024H77.8377L77.0212 1.16686H75.8473L73.0528 6.15024H74.1837C74.2605 6.01442 74.3483 5.86208 74.4494 5.68401L74.4569 5.67159L74.4676 5.65185L74.4769 5.63755C74.5563 5.49896 74.6459 5.34162 74.7284 5.19527V5.19494H74.7288ZM49.3779 6.15057L50.4397 6.15024L50.8149 4.24851L50.8144 4.24818H50.8149H51.65L52.3099 6.15024H53.4923C53.4914 6.14747 53.4652 6.07839 53.4227 5.96308L53.4 5.90376L53.3402 5.74421C53.1934 5.35327 52.945 4.68835 52.7516 4.173L52.7605 4.1699L52.7623 4.16879C52.8341 4.13752 52.9078 4.10493 52.984 4.05658C53.1175 3.97564 53.4377 3.72806 53.542 3.60754C53.6808 3.45542 53.773 3.27403 53.8138 3.06802L53.9531 2.3623C53.9939 2.16029 53.9722 1.95051 53.8972 1.81469C53.7859 1.65004 53.6582 1.49615 53.5171 1.35755C53.3796 1.24523 53.1277 1.16685 52.9038 1.16685H50.3634L49.3779 6.15057ZM64.382 6.15057L67.7561 6.15024L67.9486 5.17033H65.6357L66.4274 1.16686H65.367L64.382 6.15057ZM36.4938 5.19593H38.3117L38.471 6.1509H39.6019L38.7858 1.16807H37.6132L34.8187 6.1509H35.9492C36.0175 6.03071 36.0907 5.90221 36.1616 5.77736L36.1648 5.77281L36.2104 5.69309L36.2215 5.67335L36.2282 5.66126C36.3169 5.50781 36.4096 5.34538 36.4934 5.19636L36.4938 5.19593ZM29.522 6.15123L30.5833 6.1509L31.1745 3.16116L31.7138 4.96354H32.4092C32.5635 4.74113 32.7245 4.51139 32.866 4.30882L32.8842 4.28265L32.9206 4.23165L32.9277 4.22145L32.933 4.21358L32.9414 4.20205C33.1827 3.85856 33.4324 3.50298 33.6723 3.15251L33.0793 6.15057L34.1411 6.15024L35.1252 1.16686H33.977V1.16808C33.6829 1.57887 33.3893 1.99565 33.0647 2.45877L33.0341 2.50101L33.0053 2.5437L32.8607 2.74893C32.7041 2.97201 32.5409 3.20296 32.3826 3.42682L31.6632 1.16808H30.5066V1.16775L29.522 6.15123ZM46.0512 1.29214C45.8326 1.40279 45.4184 1.76558 45.2969 1.89009C45.1665 2.03667 45.0795 2.21795 45.0463 2.4132L44.5527 4.91321C44.511 5.12154 44.5269 5.28974 44.5988 5.42844C44.6808 5.57779 44.9478 5.92849 45.1141 6.03437C45.2725 6.1346 45.4698 6.19203 45.657 6.19203H46.979C47.1618 6.19203 47.3871 6.13304 47.5849 6.03437C47.8022 5.92372 48.2128 5.55594 48.3397 5.42844C48.4692 5.28297 48.5552 5.10491 48.5885 4.91321L49.0821 2.4132C49.1238 2.20032 49.1083 2.02935 49.0373 1.89009C48.9442 1.7464 48.6847 1.3967 48.5206 1.29214C48.3565 1.19158 48.1689 1.13703 47.9769 1.13481H46.6557C46.4455 1.14124 46.2371 1.19568 46.0512 1.29214H46.0512ZM83.5691 4.9132C83.5287 5.11765 83.5442 5.29073 83.6152 5.42843C83.6933 5.5729 83.9633 5.92792 84.1301 6.03436C84.2893 6.13459 84.4876 6.19202 84.6734 6.19202H85.9161C86.1254 6.1837 86.3361 6.12938 86.5223 6.03436C86.7286 5.9298 87.1282 5.57756 87.2683 5.42843C87.3974 5.28252 87.4834 5.10457 87.518 4.9132L88.2586 1.16685H87.196L86.4558 4.9132C86.3454 5.03195 86.2203 5.1355 86.0824 5.22043H84.8912C84.8264 5.17675 84.7089 5.02551 84.6313 4.90466L85.3701 1.16685H84.3097L83.5691 4.9132ZM80.0845 1.2836C79.8689 1.39215 79.4592 1.75171 79.3319 1.88155C79.2037 2.02125 79.1221 2.19244 79.0804 2.40499L78.5824 4.93016C78.5442 5.10335 78.5598 5.28141 78.6285 5.44495C78.7159 5.60993 78.9828 5.92548 79.1469 6.03536C79.3057 6.13537 79.5044 6.1928 79.6898 6.1928H81.0039C81.132 6.1928 81.2474 6.13537 81.3596 6.07938L81.3653 6.0765L81.3707 6.07384C81.3747 6.0714 81.3786 6.06896 81.3835 6.0663L81.3906 6.06164L81.3924 6.06042L81.4039 6.05443C81.435 6.03713 81.4727 6.01562 81.4909 6.00953L81.4966 6.15999L82.5486 6.15955L82.561 5.56992C82.5659 5.33575 82.5765 5.18518 82.5938 5.09604L82.9637 3.22713H80.7103L80.5236 4.17422H81.7153L81.5676 4.92163C81.5552 4.98139 81.3183 5.16312 81.1777 5.22044H79.9084C79.7767 5.15192 79.6326 4.98661 79.6406 4.94636L80.1377 2.42762C80.2566 2.301 80.3918 2.19245 80.5409 2.10409H81.8111C82.0253 2.26397 82.0993 2.40578 82.1681 2.62753L83.2036 2.36232C83.162 2.15543 83.1039 1.99133 83.0129 1.83079C82.8338 1.5128 82.514 1.13361 82.0111 1.13361H80.6886C80.4992 1.13361 80.2672 1.19104 80.0845 1.28362L80.0845 1.2836ZM40.0911 4.95478C40.1243 5.14194 40.1864 5.31579 40.2813 5.48631C40.4241 5.74975 40.7448 6.19203 41.2898 6.19203H41.6029L41.6007 6.20046H41.9311C42.1724 6.20046 42.4145 6.102 42.5378 6.04324C42.7538 5.93281 43.1556 5.57967 43.2732 5.44496C43.4062 5.30082 43.4998 5.12276 43.5402 4.93017L44.283 1.16808H41.7737L41.5803 2.15276H43.0279L42.4771 4.93783C42.4687 4.98318 42.1688 5.22045 42.1006 5.22045H41.4739C41.328 5.11468 41.2198 4.95624 41.1293 4.72262L40.0911 4.95478ZM20.8835 21.0454L16.8832 40.5569H93.7607L99.881 9.98572H7.78789L20.8835 21.0454ZM22.3418 52.9757H27.3928L28.3161 51.2767H24.4311L25.7984 44.3349H24.043L22.3418 52.9757ZM34.4205 51.3192L34.6702 52.9757H36.5417L35.2645 44.3349H33.3237L28.6284 52.9757H30.4991C30.598 52.794 30.7017 52.606 30.8122 52.4071L30.8233 52.3875L30.8987 52.2507L30.9151 52.222L30.9767 52.1104C31.1856 51.7357 31.3111 51.5067 31.4136 51.3195L31.414 51.3192H34.4205ZM47.0061 49.678H48.3871L49.4498 52.9757H51.4056C51.4047 52.9734 51.3927 52.9394 51.3701 52.8743L51.2863 52.6341L51.2748 52.6011L51.2739 52.5984C51.077 52.0348 50.5532 50.5369 50.2108 49.5481C50.3425 49.4927 50.472 49.4247 50.5949 49.3466C50.833 49.1976 51.363 48.7624 51.5258 48.5688C51.7586 48.3032 51.917 47.9797 51.983 47.6325L52.2239 46.4089C52.2935 46.0551 52.2607 45.6906 52.1374 45.4581C52.0314 45.2729 51.6859 44.8236 51.5169 44.6656C51.289 44.471 50.8721 44.3349 50.5026 44.3349H46.3023L44.6005 52.9757H46.3577L47.0061 49.6785L47.0057 49.678H47.0061ZM75.6593 52.9757H81.3276L81.6598 51.2909H77.7464L78.1034 49.4759H81.8864L82.2186 47.791H78.4351L78.7842 46.0198H82.6972L83.0294 44.3349H77.3605L75.6593 52.9757ZM55.131 44.5511C54.7753 44.7415 54.0826 45.372 53.8781 45.5882C53.6577 45.8464 53.5109 46.16 53.4546 46.495L52.6 50.8296C52.5294 51.1914 52.5525 51.4832 52.6696 51.7225C52.8013 51.9821 53.239 52.5905 53.5131 52.7734C53.7801 52.9493 54.0897 53.0438 54.4085 53.0467H56.595C56.8314 53.0467 57.2181 52.9749 57.5991 52.7734C57.9588 52.5825 58.6342 51.9528 58.8555 51.7225C59.0728 51.4677 59.2179 51.1588 59.276 50.8296L60.1288 46.495C60.2024 46.1254 60.1807 45.8289 60.0632 45.5882C59.935 45.3803 59.5044 44.7435 59.2179 44.5511C58.9611 44.3799 58.6267 44.2779 58.322 44.2779H56.1355C55.8251 44.2779 55.4592 44.3778 55.131 44.5511ZM60.3191 50.9018C60.3701 51.2251 60.4734 51.535 60.626 51.823C60.8579 52.2802 61.3817 53.0467 62.2833 53.0467H64.4849C64.8272 53.0467 65.2268 52.9057 65.4889 52.7734C65.8322 52.5828 66.5152 51.9833 66.7454 51.7225C66.9569 51.4636 67.1068 51.1549 67.18 50.8296L67.3481 49.9798C67.4789 49.3104 67.2625 48.5341 66.4828 48.3093L63.024 47.3157C63.0235 47.3153 62.9858 47.2871 62.9974 47.2291L63.1477 46.4659C63.1513 46.4522 63.5322 46.0754 63.7788 45.9639H65.7652C66.1205 46.2421 66.2398 46.4874 66.3489 46.8708L68.0648 46.4095C67.9978 46.049 67.9034 45.7644 67.7574 45.4875C67.4652 44.9357 66.9423 44.2779 66.1103 44.2779H64.0688C63.6475 44.2779 63.2049 44.4873 63.0794 44.5511C62.7131 44.7508 62.0208 45.3388 61.7955 45.5882C61.5484 45.8799 61.4376 46.2425 61.3874 46.495L61.2318 47.2874C61.0996 47.9596 61.3156 48.7368 62.097 48.958C62.7228 49.1311 63.3783 49.319 63.9562 49.4844L64.0241 49.5042L64.028 49.5054C64.4862 49.6372 65.0188 49.7902 65.5439 49.937C65.5457 49.9383 65.5541 49.9417 65.5621 49.9522C65.5688 49.9613 65.5781 49.9826 65.5705 50.0236L65.4029 50.8734C65.4007 50.8851 65.0317 51.2456 64.7886 51.3627H62.6017C62.3489 51.1682 62.1844 50.7838 62.0438 50.3979H62.0434L60.3191 50.9018ZM68.071 50.9018C68.1229 51.2251 68.2262 51.535 68.3788 51.823C68.6112 52.2802 69.1345 53.0467 70.0366 53.0467H72.2377C72.5787 53.0467 72.9796 52.9057 73.2413 52.7734C73.5832 52.5844 74.2658 51.9846 74.4977 51.7225C74.7097 51.4636 74.8601 51.1549 74.9328 50.8296L75.1013 49.9798C75.2322 49.3104 75.0162 48.5341 74.2347 48.3093L70.7772 47.3157C70.7768 47.3153 70.7386 47.2871 70.7502 47.2291L70.9001 46.4659C70.9023 46.4534 71.2726 46.0802 71.5325 45.9639H73.518C73.8733 46.2425 73.993 46.4879 74.1017 46.8708L75.818 46.4095C75.7511 46.0481 75.6557 45.7635 75.5098 45.4875C75.2175 44.9357 74.6951 44.2779 73.864 44.2779H71.8221C71.4008 44.2779 70.9577 44.4873 70.8318 44.5511C70.465 44.7512 69.7727 45.3391 69.5492 45.5882C69.3021 45.8799 69.1895 46.2425 69.1398 46.495L68.9846 47.2874C68.8529 47.9596 69.0689 48.7368 69.8499 48.958C70.4907 49.1355 71.1537 49.3251 71.7769 49.5042L71.7826 49.5059L71.9578 49.5563L72.0687 49.5881C72.4328 49.692 72.8852 49.8218 73.2972 49.937C73.2972 49.937 73.3362 49.9525 73.3233 50.0236L73.1557 50.8733C73.153 50.8847 72.7894 51.2431 72.5423 51.3626H70.355C70.1018 51.1682 69.9372 50.7837 69.7966 50.3979L68.071 50.9018ZM39.9287 44.552C39.5637 44.7512 38.8901 45.3451 38.6608 45.5894C38.4443 45.832 38.3113 46.1154 38.239 46.4823L37.3813 50.8451C37.3165 51.1654 37.3409 51.4907 37.4487 51.7372C37.599 52.0174 38.0314 52.5885 38.2953 52.7746C38.553 52.9455 38.8878 53.0474 39.1903 53.0474H41.0747C41.9764 53.0474 42.8026 52.2808 43.2151 51.8239C43.4767 51.5407 43.7029 51.2306 43.8856 50.9025L42.3258 50.4996C42.0158 50.9074 41.7284 51.1824 41.4211 51.3638H39.5934C39.2923 51.1643 39.1344 50.8478 39.138 50.8308L39.9828 46.5385C40.182 46.3208 40.409 46.1273 40.6578 45.9629H42.4571C42.8115 46.2409 42.9308 46.4869 43.0408 46.87L44.7558 46.4107C44.6893 46.0496 44.5943 45.7654 44.448 45.4888C44.1557 44.9368 43.6324 44.279 42.8013 44.279H40.9173C40.4973 44.279 40.0547 44.4881 39.9287 44.552V44.552ZM17.4801 53.9004L19.5907 43.4062H13.411L17.662 22.1313L0.0439453 7.13602H26.7812L20.542 0H101.169L94.9262 7.13602H103.355L96.093 43.4052H87.5956L85.4956 53.8864L51.7848 65.4992L17.4801 53.9004ZM87.3787 55.3873L89.1891 45.4944H97.7642L105.384 7.13602L107.363 10.0087L99.6344 47.8907H91.0607L89.3647 57.2165L54.8724 66.501L87.3787 55.3873Z" fill="#97A3B7"/>
</svg>
