<svg width="129" height="61" viewBox="0 0 129 61" fill="none" xmlns="http://www.w3.org/2000/svg">
<path fill-rule="evenodd" clip-rule="evenodd" d="M102.664 37.0436C101.581 31.0418 97.3541 26.1372 91.7842 24.1531C92.6956 29.2186 95.8453 33.5033 100.154 35.9115C100.959 36.3579 101.798 36.7364 102.664 37.0436L102.664 37.0436ZM58.8508 37.0437C57.7682 31.0412 53.5425 26.1374 47.9713 24.1532C48.8818 29.2123 52.0249 33.4921 56.3237 35.9022C57.1344 36.3525 57.9798 36.7345 58.8508 37.0437ZM69.878 37.0515C72.9275 35.9652 75.5743 34.0038 77.5226 31.466C78.6012 28.0319 79.4154 25.8325 80.0643 24.4183C74.8367 26.5521 70.9127 31.2982 69.878 37.0515ZM26.0651 37.0515C29.9843 35.6554 33.2378 32.815 35.199 29.1629C36.0407 27.5828 36.616 25.892 36.9255 24.1604C31.3623 26.1503 27.1437 31.0535 26.0651 37.0515ZM3.88747 21.117C3.88747 30.4266 11.3635 38.0009 20.552 38.0009C21.16 38.0009 21.7601 37.9678 22.3512 37.9032C23.2413 29.4303 29.2512 22.4838 37.1757 20.3086C37.059 17.8063 36.3995 15.3255 35.199 13.0705C32.373 7.81094 26.867 4.23301 20.552 4.23301C11.3635 4.23301 3.88747 11.8074 3.88747 21.117V21.117ZM64.3648 38.0009C64.9724 38.0009 65.5729 37.9677 66.1645 37.9032C67.0555 29.4229 73.0747 22.4717 81.0098 20.3029C80.5889 11.3696 73.284 4.233 64.3648 4.233C55.4456 4.233 48.1407 11.3696 47.7203 20.3029C55.6545 22.4716 61.6737 29.421 62.5651 37.9004C63.1328 37.9638 63.7049 37.9976 64.277 38.0007C64.2792 38.0007 64.2828 38.0008 64.2863 38.0008C64.3125 38.0009 64.3387 38.0009 64.3648 38.0009ZM108.178 38.0009C117.366 38.0009 124.841 30.4266 124.841 21.117C124.841 11.8074 117.366 4.233 108.178 4.233C99.2585 4.233 91.954 11.3696 91.5327 20.3028C99.4682 22.4709 105.487 29.4202 106.379 37.9004C106.946 37.9638 107.518 37.9976 108.09 38.0007C108.093 38.0007 108.096 38.0008 108.1 38.0008C108.125 38.0009 108.152 38.0009 108.178 38.0009H108.178ZM42.4586 56.9715C51.3778 56.9715 58.6832 49.8352 59.1036 40.9019C57.5442 40.476 56.0599 39.8655 54.6735 39.0953C53.8242 38.6271 53.0073 38.0967 52.232 37.5079L52.2369 37.5014C47.8671 34.1725 44.8664 29.0941 44.2579 23.3015C43.6663 23.2368 43.0662 23.2037 42.4586 23.2037C41.8506 23.2037 41.2505 23.2368 40.6589 23.3015C40.3755 26.0032 39.571 28.5499 38.35 30.836C37.8795 31.7252 37.3384 32.5864 36.729 33.4098L36.7233 33.4052C34.0481 37.0102 30.2269 39.6955 25.8141 40.9018C26.2341 49.8351 33.539 56.9715 42.4586 56.9715L42.4586 56.9715ZM86.2719 56.9715C95.1907 56.9715 102.496 49.835 102.916 40.9017C101.357 40.4758 99.8709 39.8647 98.4846 39.0943C97.6357 38.6263 96.8206 38.0965 96.0453 37.5079L96.0498 37.5015C91.68 34.1729 88.6792 29.0941 88.0708 23.3015C87.4791 23.2368 86.8795 23.2037 86.2719 23.2037C85.6723 23.2037 85.082 23.2358 84.4988 23.2986C84.8452 25.0566 83.5169 28.4722 81.9624 31.201C81.7558 31.5711 81.5367 31.9347 81.3078 32.2902C81.051 32.6929 80.7934 33.0696 80.5423 33.4098L80.5352 33.4063C77.8601 37.0105 74.0393 39.6957 69.6269 40.9017C70.0474 49.835 77.3522 56.9715 86.2719 56.9715H86.2719ZM66.0998 41.5304C65.5277 41.5799 64.9498 41.6051 64.3648 41.6051C64.3453 41.6051 64.3267 41.605 64.3072 41.605C64.2979 41.605 64.2881 41.6049 64.2779 41.6049C64.2704 41.6048 64.2628 41.6048 64.254 41.6048C64.2402 41.6047 64.226 41.6046 64.2123 41.6046C64.2118 41.6046 64.2118 41.6046 64.2114 41.6046C63.6787 41.6005 63.1519 41.5755 62.6299 41.5304C61.8976 52.1573 53.1305 60.5758 42.4586 60.5758C31.7871 60.5758 23.0196 52.1573 22.2869 41.5304C21.7153 41.5798 21.1361 41.6051 20.552 41.6051C9.40195 41.6051 0.331055 32.4145 0.331055 21.117C0.331055 9.81999 9.40195 0.628906 20.552 0.628906C27.1557 0.628906 33.0307 3.85249 36.7228 8.82888L36.729 8.82422C37.3424 9.6529 37.8861 10.5192 38.3589 11.4146C39.6859 13.9048 40.5192 16.7033 40.7241 19.6742C41.2958 19.6246 41.8741 19.5996 42.4586 19.5996C43.0431 19.5996 43.6215 19.6248 44.1923 19.6742C44.9258 9.04741 53.6938 0.628906 64.3648 0.628906C75.0372 0.628906 83.8043 9.04742 84.5365 19.6743C85.1086 19.6247 85.6869 19.5996 86.2719 19.5996C86.8565 19.5996 87.4339 19.6247 88.0056 19.6742C88.7391 9.04742 97.5058 0.628916 108.178 0.628916C119.328 0.628916 128.399 9.82 128.399 21.117C128.399 32.4145 119.328 41.6052 108.178 41.6052C108.159 41.6052 108.14 41.605 108.12 41.605C108.111 41.605 108.101 41.6049 108.091 41.6049C108.083 41.6048 108.076 41.6048 108.068 41.6048C108.054 41.6047 108.04 41.6046 108.026 41.6046H108.025C107.493 41.6005 106.965 41.5756 106.443 41.5304C105.71 52.1573 96.943 60.5758 86.2719 60.5758C75.6 60.5758 66.8325 52.1572 66.0998 41.5304V41.5304Z" fill="#97A3B7"/>
</svg>
