<svg width="80" height="77" viewBox="0 0 80 77" fill="none" xmlns="http://www.w3.org/2000/svg">
<path fill-rule="evenodd" clip-rule="evenodd" d="M50.0994 49.5434L54.015 43.7214L54.2271 49.5434H50.0994ZM65.798 49.4638L69.7168 43.6684L69.9125 49.4638H65.798ZM70.2473 56.4693L69.9556 53.87H62.5787L60.9508 56.4428H54.5519L54.3994 53.87H47.1916L45.4311 56.4693H35.1994C32.043 56.4693 29.1388 54.5729 28.648 51.6719C28.4126 50.2993 28.4192 48.9168 28.6513 47.5939L26.0752 56.4693H20.4323C20.4323 56.4693 17.465 49.4472 16.7455 47.7594C16.2405 49.535 14.2909 56.4693 14.2909 56.4693H9.22824L13.157 42.4946H11.4197L12.6 38.3668H18.9358L23.3653 48.5451L25.1224 42.4779H23.3719L24.5621 38.3468L31.3223 38.3667L29.3496 45.054C30.5664 41.6424 34.3824 38.3137 39.1137 38.3137L46.7159 38.3468L44.9455 44.6396H40.0088C40.0088 44.6396 40.4034 43.2537 40.589 42.5906L39.4687 42.5634C36.7798 42.5634 34.1507 46.4955 34.1507 49.2042C34.1507 51.9163 36.3853 52.4467 36.9589 52.4467L42.5023 52.4733L49.2294 42.4775L47.6711 42.4675L48.8249 38.3464H59.139L59.8319 50.2655L64.8549 42.4775H63.28L64.4802 38.3464H74.6322L75.776 54.4761C78.0272 49.6555 79.2904 44.2614 79.2904 38.618C79.2904 17.4662 61.7551 0.308594 40.1297 0.308594C18.4992 0.308594 0.967285 17.4662 0.967285 38.6222C0.967285 59.752 18.4992 76.896 40.1297 76.896C55.162 76.896 68.2082 68.6173 74.7699 56.4733L70.2473 56.4693Z" fill="#97A3B7"/>
</svg>
