<svg width="164" height="55" viewBox="0 0 164 55" fill="none" xmlns="http://www.w3.org/2000/svg">
<mask id="mask0_6_1610" style="mask-type:alpha" maskUnits="userSpaceOnUse" x="67" y="18" width="97" height="34">
<path fill-rule="evenodd" clip-rule="evenodd" d="M126.977 18.4026C126.172 18.6388 125.469 19.0311 124.871 19.5858C124.271 20.1374 123.765 20.8671 123.345 21.7686C122.929 22.6756 122.604 23.7945 122.371 25.1338C122.276 25.5991 122.212 26.0526 122.168 26.4818C122.128 26.911 122.11 27.3127 122.11 27.6956C122.11 29.4492 122.57 30.7211 123.493 31.4963C124.418 32.2778 125.782 32.667 127.59 32.667C128.62 32.667 129.537 32.5508 130.336 32.3147C131.143 32.0785 131.851 31.6831 132.457 31.1315C133.061 30.5767 133.573 29.8471 133.993 28.9494C134.41 28.0479 134.735 26.9236 134.973 25.5811C135.05 25.1181 135.115 24.6709 135.164 24.248C135.21 23.822 135.234 23.4234 135.234 23.046C135.234 21.2751 134.769 20.0032 133.84 19.221C132.908 18.4426 131.538 18.0503 129.733 18.0503C128.696 18.0503 127.783 18.1672 126.977 18.4026M126.799 29.8659C126.496 29.8015 126.248 29.6846 126.048 29.5073C125.847 29.3292 125.699 29.0962 125.601 28.7965C125.5 28.4959 125.454 28.113 125.454 27.647C125.454 27.3371 125.476 26.9754 125.524 26.5768C125.57 26.1758 125.641 25.7223 125.73 25.2288C125.902 24.2935 126.095 23.534 126.3 22.9456C126.511 22.3626 126.765 21.9028 127.054 21.5811C127.342 21.2563 127.688 21.0327 128.084 20.9165C128.479 20.7965 128.955 20.7384 129.509 20.7384C129.902 20.7384 130.251 20.769 130.545 20.8396C130.842 20.904 131.09 21.0201 131.283 21.1982C131.486 21.3763 131.633 21.6086 131.731 21.8973C131.833 22.1915 131.878 22.5681 131.878 23.0405C131.878 23.3653 131.857 23.7302 131.807 24.128C131.762 24.5297 131.691 24.9832 131.603 25.4767C131.431 26.412 131.244 27.1715 131.038 27.76C130.833 28.3484 130.585 28.8019 130.296 29.1244C130.008 29.4492 129.662 29.6729 129.267 29.789C128.871 29.909 128.397 29.9671 127.842 29.9671C127.455 29.9671 127.1 29.9365 126.799 29.8659M99.525 18.4214C98.5011 18.4214 97.5604 18.9605 97.0606 19.8432L89.9559 32.3084H93.2818L95.0841 28.9557H100.049L100.503 32.3084H103.746L101.45 18.4214H99.525ZM99.1139 21.3206L99.7667 26.43H96.3403L99.1139 21.3206ZM152.346 18.4214L149.596 32.3084H154.641C155.696 32.3084 156.67 32.2135 157.559 32.0267C158.448 31.8368 159.242 31.49 159.944 30.9847C160.642 30.4787 161.237 29.7827 161.727 28.9063C162.215 28.0299 162.579 26.9047 162.816 25.5411C162.962 24.747 163.033 24.0456 163.033 23.4359C163.033 21.6705 162.521 20.3861 161.497 19.6046C160.473 18.8138 158.96 18.4214 156.952 18.4214L152.346 18.4214ZM155.076 21.1095H156.618C157.136 21.1095 157.584 21.1464 157.967 21.2162C158.349 21.2869 158.666 21.4155 158.926 21.5999C159.184 21.7804 159.38 22.0291 159.508 22.3382C159.637 22.6513 159.708 23.0585 159.708 23.5458C159.708 23.8063 159.689 24.0887 159.661 24.3885C159.624 24.689 159.579 25.0169 159.515 25.3818C159.355 26.3076 159.15 27.0428 158.902 27.5944C158.647 28.1491 158.344 28.5721 157.979 28.8726C157.614 29.1731 157.188 29.3661 156.701 29.4673C156.214 29.5654 155.653 29.6148 155.018 29.6148H153.376L155.076 21.1095ZM146.985 18.4214L145.22 27.3371L142.014 20.6466C141.235 19.0436 139.975 18.4214 138.452 18.4214H138.293L135.547 32.3084H138.636L140.377 23.4359L144.613 32.3084H147.304L150.035 18.4214L146.985 18.4214ZM118.368 18.4214L113.403 25.5748L111.205 18.4214H107.883L105.134 32.3084H108.183L109.982 23.1998L111.625 28.4253H114.279L117.804 23.3347L116.02 32.3084H119.07L121.797 18.4214L118.368 18.4214ZM87.9912 18.4214L85.2364 32.3084H88.5035L91.2528 18.4214H87.9912ZM74.3404 18.4214L71.5911 32.3084H76.6331C77.6876 32.3084 78.6652 32.2135 79.5542 32.0267C80.4424 31.8368 81.2364 31.49 81.9355 30.9847C82.6369 30.4787 83.2317 29.7827 83.7189 28.9063C84.2062 28.0299 84.571 26.9047 84.8072 25.5411C84.9485 24.747 85.0246 24.0456 85.0246 23.4359C85.0246 21.6705 84.513 20.3861 83.489 19.6046C82.4659 18.8138 80.9547 18.4214 78.9469 18.4214L74.3404 18.4214ZM77.0685 21.1095H78.6126C79.1281 21.1095 79.5753 21.1464 79.9582 21.2162C80.3412 21.2869 80.6605 21.4155 80.9178 21.5999C81.1783 21.7804 81.3714 22.0291 81.5 22.3383C81.6287 22.6513 81.6962 23.0585 81.6962 23.5458C81.6962 23.8063 81.6781 24.0887 81.6475 24.3885C81.6138 24.689 81.5643 25.017 81.5 25.3818C81.3407 26.3076 81.1351 27.0428 80.8904 27.5944C80.6362 28.1491 80.3294 28.5721 79.9708 28.8726C79.6059 29.1731 79.183 29.3661 78.6927 29.4673C78.2054 29.5654 77.6476 29.6148 77.0096 29.6148H75.3706L77.0685 21.1095ZM110.46 37.2923C109.566 37.4885 108.775 37.8345 108.106 38.3343C107.436 38.8341 106.862 39.523 106.405 40.3939C105.94 41.264 105.581 42.3766 105.315 43.7317C105.127 44.6144 105.039 45.4139 105.039 46.131C105.039 46.8733 105.14 47.5378 105.345 48.1326C105.55 48.7273 105.875 49.2271 106.329 49.6438C106.777 50.0635 107.365 50.3852 108.088 50.6088C108.812 50.8387 109.706 50.9525 110.758 50.9525C111.184 50.9525 111.659 50.9525 112.195 50.9399C112.732 50.9337 113.25 50.8976 113.749 50.8332C114.332 50.7681 114.773 50.5908 115.086 50.3028C115.395 50.0149 115.613 49.5331 115.75 48.8434L116.878 43.0726H112.088L111.042 45.7269H113.078L112.584 48.2369C112.382 48.2495 112.15 48.255 111.861 48.255H111.254C110.212 48.255 109.465 48.0808 109.017 47.7254C108.569 47.3723 108.346 46.7721 108.346 45.9137C108.346 45.3833 108.428 44.7242 108.582 43.9427C108.741 43.0938 108.934 42.4009 109.164 41.8462C109.394 41.2946 109.682 40.86 110.034 40.5406C110.384 40.2221 110.801 39.9984 111.288 39.876C111.778 39.7529 112.373 39.6885 113.071 39.6885H114.013C114.295 39.6885 114.568 39.6948 114.825 39.6979C115.086 39.7042 115.337 39.7105 115.597 39.7168C115.855 39.7223 116.121 39.7348 116.398 39.7474L117.446 37.0561C116.731 37.0349 116.066 37.0161 115.444 37.0098C114.825 37.0044 114.184 36.9981 113.525 36.9981C112.376 36.9981 111.352 37.0993 110.46 37.2923M133.867 37.0404L131.121 50.9282H141.012L142.06 48.2158H134.799L135.409 45.2146H141.189L142.237 42.499H135.92L136.457 39.7529H142.89L143.935 37.0404H133.867ZM128.384 37.0404L126.643 45.7976C126.536 46.3303 126.413 46.7721 126.266 47.1306C126.119 47.4923 125.935 47.774 125.712 47.9914C125.488 48.2032 125.218 48.3562 124.9 48.4511C124.583 48.5437 124.201 48.5861 123.753 48.5861C122.947 48.5861 122.371 48.4457 122.012 48.1663C121.657 47.8909 121.476 47.4366 121.476 46.8144C121.476 46.674 121.488 46.5147 121.503 46.3429C121.522 46.171 121.546 46.0024 121.574 45.8187L123.318 37.0467H120.051L118.393 45.4476C118.328 45.7481 118.285 46.0243 118.261 46.2903C118.245 46.5484 118.233 46.8027 118.233 47.0506C118.233 47.7897 118.356 48.4331 118.598 48.9666C118.84 49.5088 119.192 49.9443 119.646 50.2871C120.099 50.6277 120.657 50.8756 121.316 51.038C121.975 51.2036 122.723 51.2805 123.554 51.2805C124.464 51.2805 125.264 51.1856 125.966 50.998C126.665 50.8081 127.272 50.5053 127.796 50.0792C128.32 49.6563 128.749 49.1134 129.089 48.4512C129.432 47.7866 129.696 46.9745 129.883 46.0149L131.645 37.0467H128.384V37.0404ZM99.4482 37.0404C98.4242 37.0404 97.4835 37.5803 96.9837 38.463L89.8798 50.9282H93.205L95.0072 47.5716H99.9723L100.426 50.9282H103.669L101.373 37.0404H99.4482ZM99.0378 39.9467L99.6906 45.0553H96.2665L99.0378 39.9467ZM81.6193 37.0404L78.8645 50.9282H88.7577L89.8029 48.2158H82.5483L83.161 45.2146H88.939L89.9864 42.499H83.6734L84.2062 39.7529H90.64L91.6875 37.0404H81.6193ZM70.5554 37.0404L67.7998 50.9282H76.921L77.9692 48.2158H71.6036L73.8225 37.0404H70.5554Z" fill="#97A3B7"/>
</mask>
<g mask="url(#mask0_6_1610)">
<mask id="mask1_6_1610" style="mask-type:alpha" maskUnits="userSpaceOnUse" x="-2" y="-3" width="169" height="60">
<path fill-rule="evenodd" clip-rule="evenodd" d="M-1.90103 -2.04561H166.795V56.7972H-1.90103V-2.04561Z" fill="#97A3B7"/>
</mask>
<g mask="url(#mask1_6_1610)">
<mask id="mask2_6_1610" style="mask-type:alpha" maskUnits="userSpaceOnUse" x="55" y="-18" width="121" height="105">
<path fill-rule="evenodd" clip-rule="evenodd" d="M175.451 45.6913L83.8062 86.8816L55.3769 23.6369L147.029 -17.5471L175.451 45.6913Z" fill="#97A3B7"/>
</mask>
<g mask="url(#mask2_6_1610)">
<path fill-rule="evenodd" clip-rule="evenodd" d="M175.451 45.6913L83.8062 86.8816L55.3769 23.6369L147.029 -17.5471L175.451 45.6913Z" fill="#97A3B7"/>
</g>
</g>
</g>
<mask id="mask3_6_1610" style="mask-type:alpha" maskUnits="userSpaceOnUse" x="0" y="0" width="67" height="55">
<path fill-rule="evenodd" clip-rule="evenodd" d="M13.4406 0.64209L0.399414 15.8778L33.5276 54.5627L66.6597 15.8778L53.6185 0.64209H13.4406ZM27.4319 40.4246L48.4542 15.8778L39.2898 5.17483H51.4758L60.6401 15.8715L33.5276 47.538L27.4319 40.4246ZM17.5167 28.8421L28.6214 15.8778L19.4602 5.17483H33.2765L42.4377 15.8715L24.4252 36.9087L17.5167 28.8421ZM6.41274 15.8778L14.51 6.42865L22.6073 15.8778L14.51 25.3301L6.41274 15.8778Z" fill="#97A3B7"/>
</mask>
<g mask="url(#mask3_6_1610)">
<mask id="mask4_6_1610" style="mask-type:alpha" maskUnits="userSpaceOnUse" x="-2" y="-3" width="169" height="60">
<path fill-rule="evenodd" clip-rule="evenodd" d="M-1.90103 -2.04561H166.795V56.7972H-1.90103V-2.04561Z" fill="#97A3B7"/>
</mask>
<g mask="url(#mask4_6_1610)">
<mask id="mask5_6_1610" style="mask-type:alpha" maskUnits="userSpaceOnUse" x="0" y="0" width="67" height="55">
<path fill-rule="evenodd" clip-rule="evenodd" d="M0.400664 0.64048H66.6638V54.5632H0.400664V0.64048Z" fill="#97A3B7"/>
</mask>
<g mask="url(#mask5_6_1610)">
<path fill-rule="evenodd" clip-rule="evenodd" d="M0.400664 0.64048H66.6638V54.5632H0.400664V0.64048Z" fill="#97A3B7"/>
</g>
</g>
</g>
</svg>
