<svg width="340" height="32" viewBox="0 0 340 32" fill="none" xmlns="http://www.w3.org/2000/svg">
<g clip-path="url(#clip0_282_530)">
<path d="M49.5756 8.42688L34.4648 22.2643L39.1131 31.9999H60.8317L49.5756 8.42688Z" fill="white"/>
<path d="M28.5533 21.1312L27.533 18.9926L13.313 32H33.7522L30.7236 25.6798L28.5533 21.1312Z" fill="white"/>
<path d="M45.5104 0L34.2543 10.2623L31.0313 3.54314L27.2091 7.10224L0 32H6.12204L29.0554 11.0125L30.3997 13.8374L32.2622 17.7157H32.2784L35.4852 14.7791L47.3729 3.89426L45.5104 0Z" fill="url(#paint0_linear_282_530)"/>
<path d="M74.2905 8.5387H88.0246C91.0856 8.5387 92.3165 10.007 91.7334 13.1033L90.4701 20.1736C89.9195 23.2539 88.1865 24.7382 85.1255 24.7382H77.7726L76.4769 32.016H70.0795L74.2581 8.55466L74.2905 8.5387ZM83.6031 19.5671C84.0404 19.5671 84.2185 19.4394 84.3157 18.9606L85.1255 14.3003C85.2227 13.8375 85.0931 13.6938 84.6558 13.6938H79.7647L78.7119 19.5512H83.6031V19.5671Z" fill="white"/>
<path d="M96.5274 8.5387H112.982L112.059 13.7736H102.002L101.354 17.4285H109.306L108.383 22.5836H100.431L99.6856 26.7651H109.743L108.788 32H92.3327L96.5112 8.5387H96.5274Z" fill="white"/>
<path d="M127.024 27.1801H120.254L118.181 32H111.476L122.7 8.5387H131.073L133.988 32H127.364L127.024 27.1801V27.1801ZM126.652 22.1527L126.036 13.6778L122.392 22.1527H126.636H126.652Z" fill="white"/>
<path d="M153.067 17.3487L157.149 32H150.622L148.37 22.6155L144.046 27.4355L143.236 32H136.985L141.163 8.5387H147.415L145.552 19.0245L153.909 8.5387H160.987L153.067 17.3487V17.3487Z" fill="white"/>
<path d="M165.522 27.4354L166.105 24.2115H172.502L172.13 26.3501C172.033 26.813 172.13 26.9566 172.599 26.9566H176.713C177.183 26.9566 177.361 26.8289 177.458 26.3501L177.798 24.3072C177.863 23.8444 177.734 23.7327 177.248 23.605L171.369 21.8973C168.21 20.9875 166.85 20.397 167.417 17.1731L168.129 13.0873C168.712 10.007 170.413 8.52271 173.474 8.52271H182.074C185.135 8.52271 186.366 9.99103 185.783 13.0873L185.281 16.0718H178.883L179.224 14.1566C179.288 13.6938 179.191 13.5501 178.705 13.5501H175.029C174.592 13.5501 174.413 13.6778 174.349 14.1566L174.008 15.9601C173.911 16.423 174.008 16.5347 174.559 16.6943L180.471 18.3701C183.629 19.2479 184.989 19.8703 184.422 23.0943L183.645 27.4195C183.094 30.4998 181.361 31.9841 178.3 31.9841H169.215C166.153 31.9841 164.971 30.5157 165.506 27.4195L165.522 27.4354Z" fill="#FAA806"/>
<path d="M194.124 13.9013H188.342L189.297 8.5387H207.259L206.303 13.9013H200.521L197.298 32H190.901L194.124 13.9013V13.9013Z" fill="#FAA806"/>
<path d="M227.989 13.1033L226.904 19.2C226.467 21.7856 225.171 23.222 222.985 23.621L225.576 32H219.389L216.798 24.1636H214.109L212.717 32H206.319L210.498 8.5387H224.264C227.325 8.5387 228.54 10.007 227.973 13.1033H227.989ZM219.924 19.2C220.361 19.2 220.539 19.0724 220.636 18.5936L221.381 14.2365C221.479 13.7736 221.381 13.63 220.944 13.63H216.021L215 19.2H219.924V19.2Z" fill="#FAA806"/>
<path d="M233.075 8.5387H249.53L248.607 13.7736H238.549L237.901 17.4285H245.853L244.93 22.5836H236.978L236.233 26.7651H246.291L245.335 32H228.88L233.059 8.5387H233.075Z" fill="#FAA806"/>
<path d="M253.465 8.5387H259.555L265.127 21.0035L267.329 8.5387H273.516L269.337 32H263.96L257.871 18.5616L255.458 32H249.271L253.449 8.5387H253.465Z" fill="#FAA806"/>
<path d="M274.569 27.4354L277.111 13.0873C277.694 10.007 279.395 8.52271 282.456 8.52271H291.736C294.797 8.52271 296.028 9.99103 295.445 13.0873L294.894 16.2634H288.578L288.918 14.2843C289.015 13.8215 288.918 13.6778 288.449 13.6778H283.995C283.557 13.6778 283.412 13.8055 283.314 14.2843L281.177 26.2065C281.112 26.6693 281.209 26.813 281.646 26.813H286.1C286.57 26.813 286.716 26.6853 286.78 26.2065L287.331 23.2539H283.995L284.885 18.2903H294.538L292.902 27.4035C292.352 30.4838 290.619 31.9681 287.558 31.9681H278.278C275.216 31.9681 274.034 30.4998 274.569 27.4035V27.4354Z" fill="#FAA806"/>
<path d="M304.256 13.9013H298.474L299.429 8.5387H317.391L316.435 13.9013H310.653L307.414 32H301.017L304.256 13.9013V13.9013Z" fill="#FAA806"/>
<path d="M320.646 8.5387H327.043L325.472 17.3168H332.032L333.586 8.5387H339.984L335.805 32H329.408L331.076 22.6793H324.517L322.849 32H316.451L320.63 8.5387H320.646Z" fill="#FAA806"/>
</g>
<defs>
<linearGradient id="paint0_linear_282_530" x1="43.5669" y1="1.10124" x2="0.348776" y2="36.69" gradientUnits="userSpaceOnUse">
<stop stop-color="#FFCC00"/>
<stop offset="0.56" stop-color="#EF8700"/>
<stop offset="1" stop-color="#EC6D26" stop-opacity="0"/>
</linearGradient>
<clipPath id="clip0_282_530">
<rect width="340" height="32" fill="white"/>
</clipPath>
</defs>
</svg>
