<svg width="694" height="666" viewBox="0 0 694 666" fill="none" xmlns="http://www.w3.org/2000/svg">
<g opacity="0.6">
<path d="M125.358 107.593L154.175 70.1727L155.34 69.0188L161.236 63.1795L190.904 33.7939" stroke="#373E4B" stroke-width="2" stroke-linecap="round" stroke-linejoin="round"/>
<mask id="mask0_4_443" style="mask-type:alpha" maskUnits="userSpaceOnUse" x="-1" y="-1" width="695" height="667">
<path fill-rule="evenodd" clip-rule="evenodd" d="M-0.00332002 665.128V-0.00291002H693.654V665.128H-0.00332002Z" fill="white"/>
</mask>
<g mask="url(#mask0_4_443)">
<path d="M46.552 427.544L41.286 382.249L50.7595 336.855L61.4641 293.991L74.333 253.069L94.7242 216.804L121.952 187.761L137.417 185.341L153.926 179.419L173.792 155.206L176.592 151.794L190.306 111.075L204.875 63.1448L226.874 21.1497L257.686 1.8426" stroke="#373E4B" stroke-width="2" stroke-linecap="round" stroke-linejoin="round"/>
</g>
<path d="M431.509 644.563L389.014 631.126L348.406 610.279L313.041 592.733L280.964 584.837L248.941 585.713L216.937 588.681" stroke="#373E4B" stroke-width="2" stroke-linecap="round" stroke-linejoin="round"/>
<mask id="mask1_4_443" style="mask-type:alpha" maskUnits="userSpaceOnUse" x="-1" y="-1" width="695" height="667">
<path fill-rule="evenodd" clip-rule="evenodd" d="M-0.00332002 665.128V-0.00291002H693.654V665.128H-0.00332002Z" fill="white"/>
</mask>
<g mask="url(#mask1_4_443)">
<path d="M144.56 157.485L159.298 115.731L176.267 67.8226L176.353 67.5801L200.424 30.6569L203.616 25.7604L205.755 24.6489L207.171 24.1123L215.861 19.5373L241.35 6.11004L248.546 3.06746" stroke="#373E4B" stroke-width="2" stroke-linecap="round" stroke-linejoin="round"/>
</g>
<path d="M430.27 245.683L469.548 233.757L521.118 214.644L580.7 192.299L630.929 176.012L667.338 165.757L683.788 163.122" stroke="#373E4B" stroke-width="2" stroke-linecap="round" stroke-linejoin="round"/>
<mask id="mask2_4_443" style="mask-type:alpha" maskUnits="userSpaceOnUse" x="-1" y="-1" width="695" height="667">
<path fill-rule="evenodd" clip-rule="evenodd" d="M-0.00332002 665.128V-0.00291002H693.654V665.128H-0.00332002Z" fill="white"/>
</mask>
<g mask="url(#mask2_4_443)">
<path d="M585.733 378.755L585.423 379.718L573.276 417.524L566.543 457.039L560.978 466.1L556.583 500.604L555.267 510.931L546.356 526.121L527.421 540.401L496.415 550.953L453.807 554.512L403.699 548.252L353.401 529.977L311.934 505.521L311.58 464.518L311.311 424.536L311.12 384.792L311.183 344.59L312.19 307.57L313.303 275.92L313.865 242.535L314.325 206.361L315.181 174.115L316.208 143.809L317.23 109.324L318.376 70.7623L300.057 52.2431L280.469 37.371L260.92 27.2083L242.702 21.9202L226.878 21.1412L213.803 23.109L190.356 63.8812L189.325 65.6727L189.042 66.5638L173.845 114.52L160.008 156.279L157.551 159.439L137.42 185.338L134.655 189.228L114.963 216.93L104.672 257.221L95.7071 297.651L81.0922 338.719L66.0255 384.322L66.5289 431.402L79.8575 474.554L99.4958 512.564L121.46 519.153L141.801 553.57L167.512 559.863L203.439 556.234L242.779 545.919L278.637 540.32L312.317 549.779L351.318 573.021L398.216 596.018L445.719 605.673L487.281 603.97L518.666 593.489L538.396 577.328L546.356 526.121L550.451 476.72L560.978 466.1L565.698 423.286L566.788 419.082L576.414 382.011L585.733 378.755L587.611 376.052L615.185 336.388L615.511 335.921L629.609 334.326L665.586 281.008L681.038 221.02L667.337 165.753L636.088 119.443L588.973 89.2099L528.153 84.1258L506.673 96.8774L479.419 114.948L447.692 139.432L418.089 162.467L395.689 156.49L379.393 164.948L365.547 163.281L352.089 151.276L336.504 131.702L334.446 90.8434L331.54 53.8489L327.65 38.332L321.754 32.0866L315.617 26.4476L307.231 27.0191L294.051 16.2573L280.967 8.27376L268.645 3.43586L242.702 21.9202L223.654 62.1743L210.23 108.005L197.087 147.083L176.361 174.157L163.328 212.658L164.052 260.018L162.269 301.846L149.446 341.617L133.653 387.51L129.795 436.843L137.345 482.925L150.888 523.857L167.512 559.863L188.631 586.888L216.942 588.679L235.312 607.209L259.761 612.156L273.734 621.425L294.2 628.593L316.339 634.748L318.656 635.316L318.906 635.377L319.26 635.465L319.832 635.605L320.657 635.807L321.726 636.068L323.383 638.427L330.187 638.138L331.417 638.44L332.888 638.8L334.777 639.263L337.351 639.893L339.567 640.435L341.105 640.786L347.284 642.192L357.559 644.533L363.406 645.865L363.713 645.916L363.9 645.979L375.752 649.231L390.297 653.198L410.435 658.692L442.389 663.283L469.436 659.904L489.986 650.398L497.841 643.594L506.223 636.336L521.176 623.384L532.809 605.227L535.245 597.596L542.894 573.642L547.649 558.737L550.716 541.856L554.126 528.748L562.257 507.631L572.967 484.446L573.844 482.804L575.538 479.717L592.262 449.247L592.598 448.633L608.396 412.089L623.858 374.2L624.207 373.345L644.604 332.63L644.961 331.921L645.598 330.648L656.38 308.777L659.87 303.202L674.176 280.33L674.269 280.179L685.913 240.681L691.817 220.651L683.787 163.12L655.476 113.75L635.737 100.247L607.795 81.129L588.973 89.2099L560.098 103.185L522.05 124.417L477.752 153.223L438.374 178.914L407.563 195.721L383.436 202.63L361.883 202.27L340.508 191.589L315.181 174.115L284.845 157.551L252.628 147.535L222.634 144.878L197.087 147.083L176.594 151.79L160.008 156.279L144.562 157.484L121.953 187.756L105.368 185.836L87.933 180.333L71.7766 172.834L60.9322 165.902L60.765 163.037L96.6314 139.309L125.356 107.59L138.545 92.5926L154.176 70.1688L158.143 68.8551L165.819 68.416L176.355 67.5763L189.325 65.6727L204.879 63.1371L223.654 62.1743L245.707 65.3861L269.905 74.0899L294.468 89.0409L317.23 109.324L336.504 131.702L338.419 164.685L356.409 180.963L373.317 186.584L383.436 202.63L389.709 229.131L399.838 250.344L422.323 265.41L461.667 261.216L505.514 254.382L539.475 289.609L550.148 339.353L540.908 389.518L533.951 437.308L531.214 487.421L527.421 540.401L518.666 593.489L500.213 637.887L469.706 645.764L431.508 644.553L410.435 658.692L381.968 649.457L376.595 648.079L372.964 646.238L371.314 645.576L358.858 640.575L344.427 634.78L314.4 623.898L286.323 616.813L259.761 612.156L248.944 585.712L242.78 545.919L239.711 502.718L236.94 462.385L236.071 421.949L238.057 381.972L241.548 344.584L243.921 309.016L241.567 268.782L238.307 220.789L242.682 178.517L252.628 147.535L261.299 113.082L269.905 74.0899L280.469 37.3711L294.051 16.2574" stroke="#373E4B" stroke-width="2" stroke-linecap="round" stroke-linejoin="round"/>
</g>
<path d="M585.297 414.637L575.535 452.35L564.206 490.021L558.678 497.699L556.747 508.418L553.363 527.188L553.153 530.33L550.717 541.864L550.671 542.029" stroke="#373E4B" stroke-width="2" stroke-linecap="round" stroke-linejoin="round"/>
<path d="M360.971 646.364L351.485 644.362L342.387 642.442L338.727 641.418L323.383 638.429" stroke="#373E4B" stroke-width="2" stroke-linecap="round" stroke-linejoin="round"/>
<path d="M389.651 116.358L426.75 112.057L426.999 112.028L436.424 107.474" stroke="#373E4B" stroke-width="2" stroke-linecap="round" stroke-linejoin="round"/>
<path d="M389.721 116.368L426.355 112.41L426.826 112.05L439.74 105.801L469.448 91.2934L486.14 83.1146" stroke="#373E4B" stroke-width="2" stroke-linecap="round" stroke-linejoin="round"/>
<path d="M358.227 646.168L351.066 644.578L346.603 643.587L338.563 641.607L323.381 638.431" stroke="#373E4B" stroke-width="2" stroke-linecap="round" stroke-linejoin="round"/>
<path d="M311.932 505.524L277.907 495.392L239.709 502.72L193.796 517.07L150.886 523.859L121.458 519.155L105.008 479.308L95.2107 434.323L98.3857 385.902L116.062 340.409L131.187 300.789L135.371 260.039L137.389 215.361L152.27 183.017L153.927 179.418L176.358 174.161L206.663 173.332L242.68 178.521L280.233 190.18L314.323 206.365L342.261 220.295L366.805 226.305L389.707 229.136L415.653 224.296L450.54 209.145L497.587 184.342L552.713 155.324L600.457 133.555L636.086 119.447L655.473 113.755" stroke="#373E4B" stroke-width="2" stroke-linecap="round" stroke-linejoin="round"/>
<path d="M381.97 649.459L376.812 647.787L364.01 645.957L363.727 645.917" stroke="#373E4B" stroke-width="2" stroke-linecap="round" stroke-linejoin="round"/>
<path d="M216.944 588.685L203.441 556.24L193.8 517.074L185.653 476.212L181.572 432.01L184.834 385.931L194.583 343.122L201.677 304.689L200.393 262.605L197.688 213.78L206.667 173.337L222.636 144.884L234.171 107.991L245.708 65.3946L260.924 27.217L280.969 8.28262" stroke="#373E4B" stroke-width="2" stroke-linecap="round" stroke-linejoin="round"/>
<path d="M357.563 644.542L352.93 643.714L338.726 641.419L323.381 638.43" stroke="#373E4B" stroke-width="2" stroke-linecap="round" stroke-linejoin="round"/>
<path d="M389.828 116.388L422.714 115.655L430.54 111.963L431.492 111.513L447.761 103.837L479.257 88.9782L486.14 83.1158" stroke="#373E4B" stroke-width="2" stroke-linecap="round" stroke-linejoin="round"/>
<path d="M338.195 51.5444L340.218 56.1732L350.183 78.9678L350.921 80.6547L351.202 82.1284L359.377 124.651L365.545 163.289L373.316 186.592" stroke="#373E4B" stroke-width="2" stroke-linecap="round" stroke-linejoin="round"/>
<path d="M573.84 482.804L572.964 484.448L568.038 492.622" stroke="#373E4B" stroke-width="2" stroke-linecap="round" stroke-linejoin="round"/>
<mask id="mask3_4_443" style="mask-type:alpha" maskUnits="userSpaceOnUse" x="-1" y="-1" width="695" height="667">
<path fill-rule="evenodd" clip-rule="evenodd" d="M-0.00332002 665.128V-0.00291002H693.654V665.128H-0.00332002Z" fill="white"/>
</mask>
<g mask="url(#mask3_4_443)">
<path d="M418.084 162.47L438.37 178.917L450.537 209.146L469.542 233.758L505.511 254.389L556.228 244.355L610.015 233.008L652.104 225.498L681.04 221.026L691.818 220.656" stroke="#373E4B" stroke-width="2" stroke-linecap="round" stroke-linejoin="round"/>
</g>
<path d="M395.692 156.495L414.833 140.923L435.094 123.206L479.418 114.952L522.05 124.419L552.712 155.325L580.695 192.3L610.012 233.007L619.188 284.261L600.993 337.152" stroke="#373E4B" stroke-width="2" stroke-linecap="round" stroke-linejoin="round"/>
<path d="M333.164 44.9172L341.901 67.8133L347.961 109.725L352.089 151.284L356.409 180.969L361.883 202.276L366.808 226.308L372.645 249.733L384.635 268.414L400.334 296.637L410.771 342.287L411.368 394.647L409.09 445.565L406.903 496.877L403.7 548.261L398.217 596.028L389.013 631.127L376.811 647.792" stroke="#373E4B" stroke-width="2" stroke-linecap="round" stroke-linejoin="round"/>
<path d="M347.282 642.201L345.775 641.963L338.749 641.393L323.383 638.431" stroke="#373E4B" stroke-width="2" stroke-linecap="round" stroke-linejoin="round"/>
<path d="M532.54 72.3825L553.657 67.1802L554.868 66.8828L560.86 68.7956" stroke="#373E4B" stroke-width="2" stroke-linecap="round" stroke-linejoin="round"/>
<path d="M600.997 337.144L578.886 338.324L550.148 339.355L513.065 340.279L465.772 341.225L410.77 342.28L355.967 343.458L311.182 344.59L277.731 345.167L241.547 344.587L194.578 343.115L149.444 341.619L116.061 340.408L81.0894 338.719L50.7553 336.854L28.6584 334.996L18.4184 333.384" stroke="#373E4B" stroke-width="2" stroke-linecap="round" stroke-linejoin="round"/>
<mask id="mask4_4_443" style="mask-type:alpha" maskUnits="userSpaceOnUse" x="-1" y="-1" width="695" height="667">
<path fill-rule="evenodd" clip-rule="evenodd" d="M-0.00332002 665.128V-0.00291002H693.654V665.128H-0.00332002Z" fill="white"/>
</mask>
<g mask="url(#mask4_4_443)">
<path d="M6.95568 257.602L1.84064 236.951L21.5953 198.386L22.3449 196.119L22.8134 195.472L23.394 192.957L60.7647 163.04L88.3076 145.511L96.6288 139.314" stroke="#373E4B" stroke-width="2" stroke-linecap="round" stroke-linejoin="round"/>
</g>
<path d="M373.318 186.592L393.271 179.327L418.092 162.47" stroke="#373E4B" stroke-width="2" stroke-linecap="round" stroke-linejoin="round"/>
<path d="M273.735 621.426L255.559 613.02L235.313 607.211L214.283 600.051L188.631 586.892L167.649 578.265L161.057 571.969L141.799 553.573L123.41 544.737L102.092 516.06L99.4956 512.569L84.888 504.94L77.7974 493.106L63.1311 468.629L55.8696 461.458L48.7385 446.384L39.1582 426.125L37.4622 422.541" stroke="#373E4B" stroke-width="2" stroke-linecap="round" stroke-linejoin="round"/>
<path d="M167.644 578.27L153.56 566.552L146.404 561.376L132.465 551.291L123.407 544.738L112.423 534.249L108.583 530.158L89.134 509.458L84.886 504.935" stroke="#373E4B" stroke-width="2" stroke-linecap="round" stroke-linejoin="round"/>
<mask id="mask5_4_443" style="mask-type:alpha" maskUnits="userSpaceOnUse" x="-1" y="-1" width="695" height="667">
<path fill-rule="evenodd" clip-rule="evenodd" d="M-0.00332002 665.128V-0.00291002H693.654V665.128H-0.00332002Z" fill="white"/>
</mask>
<g mask="url(#mask5_4_443)">
<path d="M307.231 27.0224L319.889 39.8768L318.377 70.7654L334.447 90.8464L347.963 109.72L359.378 124.649L369.654 133.741L379.755 136.532L390.129 134.132L414.833 140.921L447.694 139.435L477.753 153.226L497.592 184.341L521.12 214.641L556.235 244.35L580.943 287.125L578.889 338.324L562.139 385.643L553.553 430.069L550.455 476.721L531.215 487.42L500.642 496.208L458.046 500.243L406.905 496.87L354.753 484.061L311.58 464.519L277.136 455.486L236.94 462.386L185.648 476.207L137.343 482.926L105.008 479.306L79.8554 474.555L63.1311 468.624L46.5482 427.545L37.4602 422.534L28.6258 385.189L27.2992 379.578L28.6571 334.999L31.867 290.366L46.6805 248.407L75.2747 214.458L94.7222 216.804L114.962 216.933L137.389 215.36L163.327 212.661L197.683 213.774L238.307 220.791L278.802 232.15L313.866 242.535L344.287 247.389L372.648 249.727L399.84 250.346L430.27 245.681L461.668 261.218L496.241 291.458L513.066 340.281L509.414 393.066L503.741 443.734L500.642 496.208L496.417 550.952L487.283 603.97L469.708 645.764L442.391 663.283" stroke="#373E4B" stroke-width="2" stroke-linecap="round" stroke-linejoin="round"/>
</g>
<path d="M294.044 16.2586L309.42 21.6718L315.619 26.4492" stroke="#373E4B" stroke-width="2" stroke-linecap="round" stroke-linejoin="round"/>
<path d="M294.196 628.602L286.319 616.823L280.961 584.846L278.631 540.329L277.905 495.398L277.132 455.492L276.937 417.34L277.256 380.67L277.729 345.171L279.425 310.833L279.776 274.833L278.798 232.153L280.231 190.18L284.839 157.555L289.657 125.189L294.462 89.0445L300.053 52.2481L307.226 27.022" stroke="#373E4B" stroke-width="2" stroke-linecap="round" stroke-linejoin="round"/>
<path d="M337.347 639.901L323.383 638.433L318.656 635.317" stroke="#373E4B" stroke-width="2" stroke-linecap="round" stroke-linejoin="round"/>
<mask id="mask6_4_443" style="mask-type:alpha" maskUnits="userSpaceOnUse" x="-1" y="-1" width="695" height="667">
<path fill-rule="evenodd" clip-rule="evenodd" d="M-0.00332002 665.128V-0.00291002H693.654V665.128H-0.00332002Z" fill="white"/>
</mask>
<g mask="url(#mask6_4_443)">
<path d="M23.0252 195.578L34.8618 201.601L53.9599 208.668L75.2721 214.454L105.363 185.834L129.432 155.206L146.156 114.313L165.814 68.4159L184.775 43.7854L195.691 29.6042L202.755 26.2803L203.441 26.0157L205.75 24.6432L216.106 19.096L241.345 6.10365" stroke="#373E4B" stroke-width="2" stroke-linecap="round" stroke-linejoin="round"/>
</g>
<path d="M390.131 134.133L400.418 128.933L409.513 123.963L418.787 120.139L427.999 115.535L430.548 114.466L464.596 100.165L467.193 99.0737L467.492 99.0002L486.061 94.4489L524.589 85.0048L528.154 84.1301L544.99 73.4512L554.366 67.3345L560.863 68.7934L613.495 80.6115" stroke="#373E4B" stroke-width="2" stroke-linecap="round" stroke-linejoin="round"/>
<path d="M334.779 639.271L323.384 638.434L318.906 635.379" stroke="#373E4B" stroke-width="2" stroke-linecap="round" stroke-linejoin="round"/>
<path d="M316.34 634.754L314.402 623.904L313.042 592.737L312.316 549.786L311.935 505.53" stroke="#373E4B" stroke-width="2" stroke-linecap="round" stroke-linejoin="round"/>
<path d="M332.891 638.807L323.38 638.433L319.254 635.463" stroke="#373E4B" stroke-width="2" stroke-linecap="round" stroke-linejoin="round"/>
<mask id="mask7_4_443" style="mask-type:alpha" maskUnits="userSpaceOnUse" x="-1" y="-1" width="695" height="667">
<path fill-rule="evenodd" clip-rule="evenodd" d="M-0.00332002 665.128V-0.00291002H693.654V665.128H-0.00332002Z" fill="white"/>
</mask>
<g mask="url(#mask7_4_443)">
<path d="M624.206 373.347L614.954 375.081L599.536 413.454L586.164 450.378L575.534 452.348L566.544 457.041L565.715 461.318L558.676 497.695L555.267 510.932L551.227 536.274L549.832 545.034L549.744 545.588L547.644 558.764L538.394 577.327L521.176 623.385L500.213 637.888L488.376 646.357L469.434 659.906" stroke="#373E4B" stroke-width="2" stroke-linecap="round" stroke-linejoin="round"/>
</g>
<path d="M608.395 412.095L599.537 413.455L585.298 414.638" stroke="#373E4B" stroke-width="2" stroke-linecap="round" stroke-linejoin="round"/>
<path d="M327.644 38.3391L333.158 44.9187L338.189 51.5516L342.668 57.997L349.583 71.0773L356.764 82.3238L360.947 88.3778L361.857 89.9249L371.415 106.153L376.52 110.364L380.332 113.162L381.332 114.103L384.939 116.907L400.41 128.934L435.089 123.207L452.89 109.304L467.187 99.075L479.252 88.9824L544.986 73.4511L607.794 81.135L613.496 80.6132L655.476 113.756" stroke="#373E4B" stroke-width="2" stroke-linecap="round" stroke-linejoin="round"/>
<path d="M195.698 29.6061L203.445 26.0181L205.46 25.0118" stroke="#373E4B" stroke-width="2" stroke-linecap="round" stroke-linejoin="round"/>
<path d="M96.6291 139.313L103.259 144.214L115.219 150.377L129.435 155.208L144.561 157.484" stroke="#373E4B" stroke-width="2" stroke-linecap="round" stroke-linejoin="round"/>
<path d="M331.418 638.446L323.381 638.433L319.828 635.606" stroke="#373E4B" stroke-width="2" stroke-linecap="round" stroke-linejoin="round"/>
<path d="M321.748 32.0883L319.885 39.8753L331.535 53.8509L341.897 67.8098L350.917 80.6553L358.719 91.5366L359.237 93.5431L369.651 133.741L379.393 164.951L393.269 179.322L407.563 195.725L415.655 224.297L430.269 245.683" stroke="#373E4B" stroke-width="2" stroke-linecap="round" stroke-linejoin="round"/>
<path d="M342.675 57.995L346.57 64.0455L348.393 67.5108L349.934 70.0611L353.982 76.5416L360.683 86.592L363.643 91.0329L365.611 93.9856L367.373 96.049L368.961 97.6181L370.269 99.3599L380.742 113.311L382.719 114.044L384.83 114.825L386.679 115.509L387.072 115.656L388.546 116.2L389.396 116.389L409.511 123.962L416.719 120.271L422.716 115.652L426.354 112.413L426.999 112.032L436.425 107.479L439.738 105.804L469.302 91.3324L486.136 83.1193L532.542 72.3835L554.365 67.3344L554.87 66.8788L613.495 80.6113L635.735 100.251" stroke="#373E4B" stroke-width="2" stroke-linecap="round" stroke-linejoin="round"/>
<path d="M592.601 448.634L586.166 450.376L570.607 485.948L564.203 490.018L556.055 520.74L555.943 521.159L553.15 530.326L550.713 541.86" stroke="#373E4B" stroke-width="2" stroke-linecap="round" stroke-linejoin="round"/>
<path d="M346.566 64.0462L349.865 69.5571" stroke="#373E4B" stroke-width="2" stroke-linecap="round" stroke-linejoin="round"/>
<mask id="mask8_4_443" style="mask-type:alpha" maskUnits="userSpaceOnUse" x="-1" y="-1" width="695" height="667">
<path fill-rule="evenodd" clip-rule="evenodd" d="M-0.00332002 665.128V-0.00291002H693.654V665.128H-0.00332002Z" fill="white"/>
</mask>
<g mask="url(#mask8_4_443)">
<path d="M1.84149 236.95L7.08723 239.377L23.1129 243.515L46.6866 248.408L74.3355 253.068L104.674 257.224L135.375 260.039L164.051 260.019L200.389 262.6L241.565 268.785L279.779 274.828L313.3 275.923L347.781 271.693L384.631 268.408L422.318 265.411L449.664 293.468L465.767 341.226L465.307 395.168L461.142 447.204L458.039 500.242L453.802 554.513L445.713 605.674L431.503 644.553" stroke="#373E4B" stroke-width="2" stroke-linecap="round" stroke-linejoin="round"/>
</g>
<path d="M22.5944 195.361L23.3893 192.961" stroke="#373E4B" stroke-width="2" stroke-linecap="round" stroke-linejoin="round"/>
<mask id="mask9_4_443" style="mask-type:alpha" maskUnits="userSpaceOnUse" x="-1" y="-1" width="695" height="667">
<path fill-rule="evenodd" clip-rule="evenodd" d="M-0.00332002 665.128V-0.00291002H693.654V665.128H-0.00332002Z" fill="white"/>
</mask>
<g mask="url(#mask9_4_443)">
<path d="M6.74126 286.595L11.8695 287.591L31.8681 290.369L61.4636 293.992L95.7059 297.653L131.189 300.79L162.269 301.85L201.672 304.685L243.92 309.017L279.429 310.829L312.19 307.571L352.498 301.523L400.335 296.634L449.67 293.47L496.24 291.458L539.477 289.612L580.942 287.128L619.194 284.258L646.366 282.529L665.589 281.011L674.272 280.183" stroke="#373E4B" stroke-width="2" stroke-linecap="round" stroke-linejoin="round"/>
</g>
<path d="M327.984 637.606L323.382 638.429" stroke="#373E4B" stroke-width="2" stroke-linecap="round" stroke-linejoin="round"/>
<path d="M573.84 482.804L570.603 485.949L567.279 493.895L556.464 519.766" stroke="#373E4B" stroke-width="2" stroke-linecap="round" stroke-linejoin="round"/>
<path d="M645.599 330.651L641.573 332.455L641.222 333.017L639.62 335.584L614.954 375.08L599.324 376.622L585.73 378.755" stroke="#373E4B" stroke-width="2" stroke-linecap="round" stroke-linejoin="round"/>
<path d="M354.808 645.618L350.802 644.714L350.231 644.57L338.387 641.813L323.381 638.43" stroke="#373E4B" stroke-width="2" stroke-linecap="round" stroke-linejoin="round"/>
<path d="M326.845 637.328L323.381 638.43" stroke="#373E4B" stroke-width="2" stroke-linecap="round" stroke-linejoin="round"/>
<path d="M325.623 637.028L323.381 638.429" stroke="#373E4B" stroke-width="2" stroke-linecap="round" stroke-linejoin="round"/>
<path d="M125.358 107.593L127.542 108.385L135.059 111.263L146.162 114.318L159.301 115.735L173.846 114.524L190.309 111.072L210.23 108.01L234.167 107.987L261.298 113.087L289.66 125.188L316.206 143.812L338.416 164.689L340.505 191.592L342.26 220.294L344.283 247.39L347.779 271.694L352.494 301.524L355.965 343.459L356.268 390.836L355.579 437.376L354.749 484.063L353.398 529.981L351.315 573.024L348.402 610.276L344.423 634.781L339.565 640.437" stroke="#373E4B" stroke-width="2" stroke-linecap="round" stroke-linejoin="round"/>
<path d="M323.382 638.43L322.98 636.375" stroke="#373E4B" stroke-width="2" stroke-linecap="round" stroke-linejoin="round"/>
<path d="M324.303 636.707L323.381 638.431" stroke="#373E4B" stroke-width="2" stroke-linecap="round" stroke-linejoin="round"/>
<path d="M363.863 645.994L362.978 646.212L360.973 646.365L358.229 646.166L354.809 645.617L350.82 644.703L350.789 644.72L338.901 641.217L323.384 638.43" stroke="#373E4B" stroke-width="2" stroke-linecap="round" stroke-linejoin="round"/>
<path d="M363.661 645.937L362.972 646.209L352.058 644.065L338.93 641.179L323.381 638.43" stroke="#373E4B" stroke-width="2" stroke-linecap="round" stroke-linejoin="round"/>
<path d="M656.375 308.78L641.565 332.456L629.604 334.33L629.293 334.764L599.321 376.627L585.291 414.643L573.271 417.531L565.691 423.294L553.544 430.076L533.946 437.314L503.734 443.741L461.143 447.21L409.083 445.566L355.578 437.38L311.307 424.543L276.936 417.34L236.067 421.956L181.564 432.011L129.789 436.851L95.2092 434.328L66.5254 431.41L46.5472 427.551" stroke="#373E4B" stroke-width="2" stroke-linecap="round" stroke-linejoin="round"/>
<path d="M21.5905 198.391L23.0273 195.587L60.9275 165.906L88.3036 145.51" stroke="#373E4B" stroke-width="2" stroke-linecap="round" stroke-linejoin="round"/>
<path d="M353.981 76.5379L355.503 79.1214L356.769 82.3187L365.499 100.023L371.42 106.151L371.755 106.65L372.221 107.351L379.066 117.587L390.129 134.132" stroke="#373E4B" stroke-width="2" stroke-linecap="round" stroke-linejoin="round"/>
<path d="M360.681 86.5915L367.602 95.8106L370.356 99.1329L373.504 102.547L382.972 111.865L387.069 115.656" stroke="#373E4B" stroke-width="2" stroke-linecap="round" stroke-linejoin="round"/>
<mask id="mask10_4_443" style="mask-type:alpha" maskUnits="userSpaceOnUse" x="-1" y="-1" width="695" height="667">
<path fill-rule="evenodd" clip-rule="evenodd" d="M-0.00332002 665.128V-0.00291002H693.654V665.128H-0.00332002Z" fill="white"/>
</mask>
<g mask="url(#mask10_4_443)">
<path d="M388.542 116.203L389.393 116.392L389.72 116.373L389.828 116.388L416.715 120.274L418.781 120.142L434.906 115.383L452.89 109.305L455.753 108.645L506.67 96.8843L560.094 103.192L600.455 133.557L630.925 176.015L652.099 225.498L646.359 282.53L615.507 335.924L600.993 337.146L596.415 345.506L576.411 382.011L562.132 385.644L540.904 389.521L509.407 393.067L465.308 395.169L411.363 394.642L356.268 390.835L311.115 384.795L277.257 380.667L238.054 381.975L184.826 385.927L133.648 387.513L98.3847 385.899L66.0223 384.325L41.2833 382.252L27.2987 379.579L25.4907 376.415L18.4185 333.387L14.3817 305.161L11.8681 287.592L23.1076 243.517L53.9615 208.674L87.9298 180.338L115.219 150.382L135.054 111.266L156.063 72.6768L158.139 68.8605L169.774 56.4085L171.966 54.064L186.741 38.2515L190.9 33.7977L195.692 29.614L201.39 26.6815L203.614 25.7647L213.8 23.117L217.973 20.71L231.061 13.1565L248.54 3.06925L257.687 1.84188L268.642 3.4441" stroke="#373E4B" stroke-width="2" stroke-linecap="round" stroke-linejoin="round"/>
</g>
<path d="M280.968 8.28224L297.036 15.2333L297.631 15.4923L303.357 17.9685L309.423 21.6755" stroke="#373E4B" stroke-width="2" stroke-linecap="round" stroke-linejoin="round"/>
<path d="M370.361 99.1321L371.78 100.845L382.715 114.043" stroke="#373E4B" stroke-width="2" stroke-linecap="round" stroke-linejoin="round"/>
<path d="M373.507 102.548L377.016 106.355L384.825 114.827" stroke="#373E4B" stroke-width="2" stroke-linecap="round" stroke-linejoin="round"/>
<path d="M382.974 111.865L386.683 115.506" stroke="#373E4B" stroke-width="2" stroke-linecap="round" stroke-linejoin="round"/>
<mask id="mask11_4_443" style="mask-type:alpha" maskUnits="userSpaceOnUse" x="-1" y="-1" width="695" height="667">
<path fill-rule="evenodd" clip-rule="evenodd" d="M-0.00332002 665.128V-0.00291002H693.654V665.128H-0.00332002Z" fill="white"/>
</mask>
<g mask="url(#mask11_4_443)">
<path d="M14.3832 305.159L10.0652 294.67L6.74126 286.594L6.95072 257.603L7.08301 239.38L34.865 201.608L71.7754 172.842L103.262 144.218L127.54 108.389L138.544 92.6028" stroke="#373E4B" stroke-width="2" stroke-linecap="round" stroke-linejoin="round"/>
</g>
<path d="M349.177 71.5913L358.723 91.5431L365.502 100.028L366.22 101.867L366.492 102.564L366.913 103.64L379.757 136.534L395.692 156.495" stroke="#373E4B" stroke-width="2" stroke-linecap="round" stroke-linejoin="round"/>
<path d="M28.6325 385.19L27.2506 381.328L25.4932 376.419" stroke="#373E4B" stroke-width="2" stroke-linecap="round" stroke-linejoin="round"/>
<path d="M77.803 493.107L66.3326 476.559L60.0882 467.55L55.8639 461.458" stroke="#373E4B" stroke-width="2" stroke-linecap="round" stroke-linejoin="round"/>
<path d="M376.381 648.376L363.936 645.972" stroke="#373E4B" stroke-width="2" stroke-linecap="round" stroke-linejoin="round"/>
<path d="M154.174 70.1728L155.492 69.01L160.436 64.6487L169.781 56.4074" stroke="#373E4B" stroke-width="2" stroke-linecap="round" stroke-linejoin="round"/>
<path d="M330.188 638.142L329.075 637.87L323.386 638.431L320.657 635.807" stroke="#373E4B" stroke-width="2" stroke-linecap="round" stroke-linejoin="round"/>
<path d="M329.073 637.869L327.983 637.603L326.844 637.324L325.619 637.025L324.309 636.703L322.977 636.378L321.724 636.072" stroke="#373E4B" stroke-width="2" stroke-linecap="round" stroke-linejoin="round"/>
<path d="M367.14 96.2844L376.525 110.361L379.934 113.01" stroke="#373E4B" stroke-width="2" stroke-linecap="round" stroke-linejoin="round"/>
</g>
</svg>
