<svg width="694" height="666" fill="none" xmlns="http://www.w3.org/2000/svg">
    <g opacity=".6">
        <path d="m125.358 107.593 28.817-37.42 1.165-1.154 5.896-5.84 29.668-29.385" stroke="#373E4B" stroke-width="2" stroke-linecap="round" stroke-linejoin="round"/>
        <mask id="a" style="mask-type:alpha" maskUnits="userSpaceOnUse" x="-1" y="-1" width="695" height="667">
            <path fill-rule="evenodd" clip-rule="evenodd" d="M-.003 665.128V-.002h693.657v665.13H-.003Z" fill="#fff"/>
        </mask>
        <g mask="url(#a)">
            <path d="m46.552 427.544-5.266-45.295 9.474-45.394 10.704-42.864 12.869-40.922 20.391-36.265 27.228-29.043 15.465-2.42 16.509-5.922 19.866-24.213 2.8-3.412 13.714-40.719 14.569-47.93 21.999-41.995 30.812-19.307" stroke="#373E4B" stroke-width="2" stroke-linecap="round" stroke-linejoin="round"/>
        </g>
        <path d="m431.509 644.563-42.495-13.437-40.608-20.847-35.365-17.546-32.077-7.896-32.023.876-32.004 2.968" stroke="#373E4B" stroke-width="2" stroke-linecap="round" stroke-linejoin="round"/>
        <mask id="b" style="mask-type:alpha" maskUnits="userSpaceOnUse" x="-1" y="-1" width="695" height="667">
            <path fill-rule="evenodd" clip-rule="evenodd" d="M-.003 665.128V-.002h693.657v665.13H-.003Z" fill="#fff"/>
        </mask>
        <g mask="url(#b)">
            <path d="m144.56 157.485 14.738-41.754 16.969-47.908.086-.243 24.071-36.923 3.192-4.897 2.139-1.111 1.416-.537 8.69-4.575L241.35 6.11l7.196-3.043" stroke="#373E4B" stroke-width="2" stroke-linecap="round" stroke-linejoin="round"/>
        </g>
        <path d="m430.27 245.683 39.278-11.926 51.57-19.113 59.582-22.345 50.229-16.287 36.409-10.255 16.45-2.635" stroke="#373E4B" stroke-width="2" stroke-linecap="round" stroke-linejoin="round"/>
        <mask id="c" style="mask-type:alpha" maskUnits="userSpaceOnUse" x="-1" y="-1" width="695" height="667">
            <path fill-rule="evenodd" clip-rule="evenodd" d="M-.003 665.128V-.002h693.657v665.13H-.003Z" fill="#fff"/>
        </mask>
        <g mask="url(#c)">
            <path d="m585.733 378.755-.31.963-12.147 37.806-6.733 39.515-5.565 9.061-4.395 34.504-1.316 10.327-8.911 15.19-18.935 14.28-31.006 10.552-42.608 3.559-50.108-6.26-50.298-18.275-41.467-24.456-.354-41.003-.269-39.982-.191-39.744.063-40.202 1.007-37.02 1.113-31.65.562-33.385.46-36.174.856-32.246 1.027-30.306 1.022-34.485 1.146-38.562-18.319-18.519-19.588-14.872-19.549-10.163-18.218-5.288-15.824-.779-13.075 1.968-23.447 40.772-1.031 1.792-.283.89-15.197 47.957-13.837 41.759-2.457 3.16-20.131 25.899-2.765 3.89-19.692 27.702-10.291 40.291-8.965 40.43-14.615 41.068-15.067 45.603.504 47.08 13.329 43.152 19.638 38.01 21.964 6.589 20.341 34.417 25.711 6.293 35.927-3.629 39.34-10.315 35.858-5.599 33.68 9.459 39.001 23.242 46.898 22.997 47.503 9.655 41.562-1.703 31.385-10.481 19.73-16.161 7.96-51.207 4.095-49.401 10.527-10.62 4.72-42.814 1.09-4.204 9.626-37.071 9.319-3.256 1.878-2.703 27.574-39.664.326-.467 14.098-1.595 35.977-53.318 15.452-59.988-13.701-55.267-31.249-46.31-47.115-30.233-60.82-5.084-21.48 12.751-27.254 18.071-31.727 24.484-29.603 23.035-22.4-5.977-16.296 8.458-13.846-1.667-13.458-12.005-15.585-19.574-2.058-40.859-2.906-36.994-3.89-15.517-5.896-6.245-6.137-5.64-8.386.572-13.18-10.762-13.084-7.983-12.322-4.838-25.943 18.484-19.048 40.254-13.424 45.831-13.143 39.078-20.726 27.074-13.033 38.501.724 47.36-1.783 41.828-12.823 39.771-15.793 45.893-3.858 49.333 7.55 46.082 13.543 40.932 16.624 36.006 21.119 27.025 28.311 1.791 18.37 18.53 24.449 4.947 13.973 9.269 20.466 7.168 22.139 6.155 2.317.568.25.061.354.088.572.14.825.202 1.069.261 1.657 2.359 6.804-.289 1.23.302 1.471.36 1.889.463 2.574.63 2.216.542 1.538.351 6.179 1.406 10.275 2.341 5.847 1.332.307.051.187.063 11.852 3.252 14.545 3.967 20.138 5.494 31.954 4.591 27.047-3.379 20.55-9.506 7.855-6.804 8.382-7.258 14.953-12.952 11.633-18.157 2.436-7.631 7.649-23.954 4.755-14.905 3.067-16.881 3.41-13.108 8.131-21.117 10.71-23.185.877-1.642 1.694-3.087 16.724-30.47.336-.614 15.798-36.544 15.462-37.889.349-.855 20.397-40.715.357-.709.637-1.273 10.782-21.871 3.49-5.575 14.306-22.872.093-.151 11.644-39.498 5.904-20.03-8.03-57.531-28.311-49.37-19.739-13.503-27.942-19.118-18.822 8.08-28.875 13.976-38.048 21.232-44.298 28.806-39.378 25.691-30.811 16.807-24.127 6.909-21.553-.36-21.375-10.681-25.327-17.474-30.336-16.564-32.217-10.016-29.994-2.657-25.547 2.205-20.493 4.707-16.586 4.489-15.446 1.205-22.609 30.272-16.585-1.92-17.435-5.503-16.156-7.499-10.845-6.932-.167-2.865 35.866-23.728 28.725-31.719 13.189-14.997 15.631-22.424 3.967-1.314 7.676-.439 10.536-.84 12.97-1.903 15.554-2.536 18.775-.963 22.053 3.212 24.198 8.704 24.563 14.95 22.762 20.284 19.274 22.378 1.915 32.983 17.99 16.278 16.908 5.621 10.119 16.046 6.273 26.501 10.129 21.213 22.485 15.066 39.344-4.194 43.847-6.834 33.961 35.227 10.673 49.744-9.24 50.165-6.957 47.79-2.737 50.113-3.793 52.98-8.755 53.088-18.453 44.398-30.507 7.877-38.198-1.211-21.073 14.139-28.467-9.235-5.373-1.378-3.631-1.841-1.65-.662-12.456-5.001-14.431-5.795-30.027-10.882-28.077-7.085-26.562-4.657-10.817-26.444-6.164-39.793-3.069-43.201-2.771-40.333-.869-40.436 1.986-39.977 3.491-37.388 2.373-35.568-2.354-40.234-3.26-47.993 4.375-42.272 9.946-30.982 8.671-34.453 8.606-38.992 10.564-36.719 13.582-21.114" stroke="#373E4B" stroke-width="2" stroke-linecap="round" stroke-linejoin="round"/>
        </g>
        <path d="m585.297 414.637-9.762 37.713-11.329 37.671-5.528 7.678-1.931 10.719-3.384 18.77-.21 3.142-2.436 11.534-.046.165M360.971 646.364l-9.486-2.002-9.098-1.92-3.66-1.024-15.344-2.989M389.651 116.358l37.099-4.301.249-.029 9.425-4.554" stroke="#373E4B" stroke-width="2" stroke-linecap="round" stroke-linejoin="round"/>
        <path d="m389.721 116.368 36.634-3.958.471-.36 12.914-6.249 29.708-14.508 16.692-8.178M358.227 646.168l-7.161-1.59-4.463-.991-8.04-1.98-15.182-3.176M311.932 505.524l-34.025-10.132-38.198 7.328-45.913 14.35-42.91 6.789-29.428-4.704-16.45-39.847-9.797-44.985 3.175-48.421 17.676-45.493 15.125-39.62 4.184-40.75 2.018-44.678 14.881-32.344 1.657-3.599 22.431-5.257 30.305-.829 36.017 5.189 37.553 11.659 34.09 16.185 27.938 13.93 24.544 6.01 22.902 2.831 25.946-4.84 34.887-15.151 47.047-24.803 55.126-29.018 47.744-21.769 35.629-14.108 19.387-5.692M381.97 649.459l-5.158-1.672-12.802-1.83-.283-.04" stroke="#373E4B" stroke-width="2" stroke-linecap="round" stroke-linejoin="round"/>
        <path d="m216.944 588.685-13.503-32.445-9.641-39.166-8.147-40.862-4.081-44.202 3.262-46.079 9.749-42.809 7.094-38.433-1.284-42.084-2.705-48.825 8.979-40.443 15.969-28.453 11.535-36.893 11.537-42.596 15.216-38.178 20.045-18.934M357.563 644.542l-4.633-.828-14.204-2.295-15.345-2.989M389.828 116.388l32.886-.733 7.826-3.692.952-.45 16.269-7.676 31.496-14.859 6.883-5.862M338.195 51.544l2.023 4.63 9.965 22.794.738 1.687.281 1.473 8.175 42.523 6.168 38.638 7.771 23.303M573.84 482.804l-.876 1.644-4.926 8.174" stroke="#373E4B" stroke-width="2" stroke-linecap="round" stroke-linejoin="round"/>
        <mask id="d" style="mask-type:alpha" maskUnits="userSpaceOnUse" x="-1" y="-1" width="695" height="667">
            <path fill-rule="evenodd" clip-rule="evenodd" d="M-.003 665.128V-.002h693.657v665.13H-.003Z" fill="#fff"/>
        </mask>
        <g mask="url(#d)">
            <path d="m418.084 162.47 20.286 16.447 12.167 30.229 19.005 24.612 35.969 20.631 50.717-10.034 53.787-11.347 42.089-7.51 28.936-4.472 10.778-.37" stroke="#373E4B" stroke-width="2" stroke-linecap="round" stroke-linejoin="round"/>
        </g>
        <path d="m395.692 156.495 19.141-15.572 20.261-17.717 44.324-8.254 42.632 9.467 30.662 30.906 27.983 36.975 29.317 40.707 9.176 51.254-18.195 52.891M333.164 44.917l8.737 22.896 6.06 41.912 4.128 41.559 4.32 29.685 5.474 21.307 4.925 24.032 5.837 23.425 11.99 18.681 15.699 28.223 10.437 45.65.597 52.36-2.278 50.918-2.187 51.312-3.203 51.384-5.483 47.767-9.204 35.099-12.202 16.665M347.282 642.201l-1.507-.238-7.026-.57-15.366-2.962M532.54 72.382l21.117-5.202 1.211-.297 5.992 1.913" stroke="#373E4B" stroke-width="2" stroke-linecap="round" stroke-linejoin="round"/>
        <path d="m600.997 337.144-22.111 1.18-28.738 1.031-37.083.924-47.293.946-55.002 1.055-54.803 1.178-44.785 1.132-33.451.577-36.184-.58-46.969-1.472-45.134-1.496-33.383-1.211-34.972-1.689-30.334-1.865-22.097-1.858-10.24-1.612" stroke="#373E4B" stroke-width="2" stroke-linecap="round" stroke-linejoin="round"/>
        <mask id="e" style="mask-type:alpha" maskUnits="userSpaceOnUse" x="-1" y="-1" width="695" height="667">
            <path fill-rule="evenodd" clip-rule="evenodd" d="M-.003 665.128V-.002h693.657v665.13H-.003Z" fill="#fff"/>
        </mask>
        <g mask="url(#e)">
            <path d="M6.956 257.602 1.84 236.951l19.754-38.565.75-2.267.468-.647.581-2.515 37.37-29.917 27.544-17.529 8.32-6.197" stroke="#373E4B" stroke-width="2" stroke-linecap="round" stroke-linejoin="round"/>
        </g>
        <path d="m373.318 186.592 19.953-7.265 24.821-16.857M273.735 621.426l-18.176-8.406-20.246-5.809-21.03-7.16-25.652-13.159-20.982-8.627-6.592-6.296-19.258-18.396-18.389-8.836-21.318-28.677-2.596-3.491-14.608-7.629-7.09-11.834-14.667-24.477-7.261-7.171-7.131-15.074-9.58-20.259-1.697-3.584" stroke="#373E4B" stroke-width="2" stroke-linecap="round" stroke-linejoin="round"/>
        <path d="m167.644 578.27-14.084-11.718-7.156-5.176-13.939-10.085-9.058-6.553-10.984-10.489-3.84-4.091-19.449-20.7-4.248-4.523" stroke="#373E4B" stroke-width="2" stroke-linecap="round" stroke-linejoin="round"/>
        <mask id="f" style="mask-type:alpha" maskUnits="userSpaceOnUse" x="-1" y="-1" width="695" height="667">
            <path fill-rule="evenodd" clip-rule="evenodd" d="M-.003 665.128V-.002h693.657v665.13H-.003Z" fill="#fff"/>
        </mask>
        <g mask="url(#f)">
            <path d="m307.231 27.022 12.658 12.855-1.512 30.888 16.07 20.081 13.516 18.874 11.415 14.929 10.276 9.092 10.101 2.791 10.374-2.4 24.704 6.789 32.861-1.486 30.059 13.791 19.839 31.115 23.528 30.3 35.115 29.709 24.708 42.775-2.054 51.199-16.75 47.319-8.586 44.426-3.098 46.652-19.24 10.699-30.573 8.788-42.596 4.035-51.141-3.373-52.152-12.809-43.173-19.542-34.444-9.033-40.196 6.9-51.292 13.821-48.305 6.719-32.335-3.62-25.153-4.751-16.724-5.931-16.583-41.079-9.088-5.011-8.834-37.345-1.327-5.611 1.358-44.579 3.21-44.633 14.814-41.959 28.594-33.949 19.447 2.346 20.24.129 22.427-1.573 25.938-2.699 34.356 1.113 40.624 7.017 40.495 11.359 35.064 10.385 30.421 4.854 28.361 2.338 27.192.619 30.43-4.665 31.398 15.537 34.573 30.24 16.825 48.823-3.652 52.785-5.673 50.668-3.099 52.474-4.225 54.744-9.134 53.018-17.575 41.794-27.317 17.519" stroke="#373E4B" stroke-width="2" stroke-linecap="round" stroke-linejoin="round"/>
        </g>
        <path d="m294.044 16.259 15.376 5.413 6.199 4.777M294.196 628.602l-7.877-11.779-5.358-31.977-2.33-44.517-.726-44.931-.773-39.906-.195-38.152.319-36.67.473-35.499 1.696-34.338.351-36-.978-42.68 1.433-41.973 4.608-32.625 4.818-32.366 4.805-36.144 5.591-36.797 7.173-25.226M337.347 639.901l-13.964-1.468-4.727-3.116" stroke="#373E4B" stroke-width="2" stroke-linecap="round" stroke-linejoin="round"/>
        <mask id="g" style="mask-type:alpha" maskUnits="userSpaceOnUse" x="-1" y="-1" width="695" height="667">
            <path fill-rule="evenodd" clip-rule="evenodd" d="M-.003 665.128V-.002h693.657v665.13H-.003Z" fill="#fff"/>
        </mask>
        <g mask="url(#g)">
            <path d="m23.025 195.578 11.837 6.023 19.098 7.067 21.312 5.786 30.091-28.62 24.069-30.628 16.724-40.893 19.658-45.897 18.961-24.63 10.916-14.182 7.064-3.324.686-.264 2.309-1.373 10.356-5.547 25.239-12.992" stroke="#373E4B" stroke-width="2" stroke-linecap="round" stroke-linejoin="round"/>
        </g>
        <path d="m390.131 134.133 10.287-5.2 9.095-4.97 9.274-3.824 9.212-4.604 2.549-1.069 34.048-14.301 2.597-1.091.299-.074 18.569-4.551 38.528-9.444 3.565-.875 16.836-10.679 9.376-6.116 6.497 1.458 52.632 11.819M334.779 639.271l-11.395-.837-4.478-3.055M316.34 634.754l-1.938-10.85-1.36-31.167-.726-42.951-.381-44.256" stroke="#373E4B" stroke-width="2" stroke-linecap="round" stroke-linejoin="round"/>
        <path d="m332.891 638.807-9.511-.374-4.126-2.97" stroke="#373E4B" stroke-width="2" stroke-linecap="round" stroke-linejoin="round"/>
        <mask id="h" style="mask-type:alpha" maskUnits="userSpaceOnUse" x="-1" y="-1" width="695" height="667">
            <path fill-rule="evenodd" clip-rule="evenodd" d="M-.003 665.128V-.002h693.657v665.13H-.003Z" fill="#fff"/>
        </mask>
        <g mask="url(#h)">
            <path d="m624.206 373.347-9.252 1.734-15.418 38.373-13.372 36.924-10.63 1.97-8.99 4.693-.829 4.277-7.039 36.377-3.409 13.237-4.04 25.342-1.395 8.76-.088.554-2.1 13.176-9.25 18.563-17.218 46.058-20.963 14.503-11.837 8.469-18.942 13.549" stroke="#373E4B" stroke-width="2" stroke-linecap="round" stroke-linejoin="round"/>
        </g>
        <path d="m608.395 412.095-8.858 1.36-14.239 1.183M327.644 38.34l5.514 6.579 5.031 6.633 4.479 6.445 6.915 13.08 7.181 11.247 4.183 6.054.91 1.547 9.558 16.228 5.105 4.211 3.812 2.798 1 .941 3.607 2.804 15.471 12.027 34.679-5.727 17.801-13.903 14.297-10.229 12.065-10.093 65.734-15.53 62.808 7.683 5.702-.522 41.98 33.143M195.698 29.606l7.747-3.588 2.015-1.006M96.63 139.313l6.629 4.901 11.96 6.163 14.216 4.831 15.126 2.276M331.418 638.446l-8.037-.013-3.553-2.827M321.748 32.088l-1.863 7.787 11.65 13.976 10.362 13.959 9.02 12.845 7.802 10.882.518 2.006 10.414 40.198 9.742 31.21 13.876 14.371 14.294 16.403 8.092 28.572 14.614 21.386" stroke="#373E4B" stroke-width="2" stroke-linecap="round" stroke-linejoin="round"/>
        <path d="m342.675 57.995 3.895 6.05 1.823 3.466 1.541 2.55 4.048 6.48 6.701 10.051 2.96 4.44 1.968 2.954 1.762 2.063 1.588 1.57 1.308 1.74 10.473 13.952 1.977.733 2.111.781 1.849.684.393.147 1.474.544.85.189 20.115 7.573 7.208-3.691 5.997-4.619 3.638-3.239.645-.381 9.426-4.553 3.313-1.675 29.564-14.472 16.834-8.213 46.406-10.736 21.823-5.049.505-.455 58.625 13.732 22.24 19.64M592.601 448.634l-6.435 1.742-15.559 35.572-6.404 4.07-8.148 30.722-.112.419-2.793 9.167-2.437 11.534M346.566 64.046l3.299 5.511" stroke="#373E4B" stroke-width="2" stroke-linecap="round" stroke-linejoin="round"/>
        <mask id="i" style="mask-type:alpha" maskUnits="userSpaceOnUse" x="-1" y="-1" width="695" height="667">
            <path fill-rule="evenodd" clip-rule="evenodd" d="M-.003 665.128V-.002h693.657v665.13H-.003Z" fill="#fff"/>
        </mask>
        <g mask="url(#i)">
            <path d="m1.841 236.95 5.246 2.427 16.026 4.138 23.574 4.893 27.648 4.66 30.339 4.156 30.701 2.815 28.676-.02 36.338 2.581 41.176 6.185 38.214 6.043 33.521 1.095 34.481-4.23 36.85-3.285 37.687-2.997 27.346 28.057 16.103 47.758-.46 53.942-4.165 52.036-3.103 53.038-4.237 54.271-8.089 51.161-14.21 38.879" stroke="#373E4B" stroke-width="2" stroke-linecap="round" stroke-linejoin="round"/>
        </g>
        <path d="m22.594 195.361.795-2.4" stroke="#373E4B" stroke-width="2" stroke-linecap="round" stroke-linejoin="round"/>
        <mask id="j" style="mask-type:alpha" maskUnits="userSpaceOnUse" x="-1" y="-1" width="695" height="667">
            <path fill-rule="evenodd" clip-rule="evenodd" d="M-.003 665.128V-.002h693.657v665.13H-.003Z" fill="#fff"/>
        </mask>
        <g mask="url(#j)">
            <path d="m6.741 286.595 5.129.996 19.998 2.778 29.596 3.623 34.242 3.661 35.483 3.137 31.08 1.06 39.403 2.835 42.248 4.332 35.509 1.812 32.761-3.258 40.308-6.048 47.837-4.889 49.335-3.164 46.57-2.012 43.237-1.846 41.465-2.484 38.252-2.87 27.172-1.729 19.223-1.518 8.683-.828" stroke="#373E4B" stroke-width="2" stroke-linecap="round" stroke-linejoin="round"/>
        </g>
        <path d="m327.984 637.606-4.602.823M573.84 482.804l-3.237 3.145-3.324 7.946-10.815 25.871M645.599 330.651l-4.026 1.804-.351.562-1.602 2.567-24.666 39.496-15.63 1.542-13.594 2.133M354.808 645.618l-4.006-.904-.571-.144-11.844-2.757-15.006-3.383M326.845 637.328l-3.464 1.102M325.623 637.028l-2.242 1.401M125.358 107.593l2.184.792 7.517 2.878 11.103 3.055 13.139 1.417 14.545-1.211 16.463-3.452 19.921-3.062 23.937-.023 27.131 5.1 28.362 12.101 26.546 18.624 22.21 20.877 2.089 26.903 1.755 28.702 2.023 27.096 3.496 24.304 4.715 29.83 3.471 41.935.303 47.377-.689 46.54-.83 46.687-1.351 45.918-2.083 43.043-2.913 37.252-3.979 24.505-4.858 5.656M323.382 638.43l-.402-2.055M324.303 636.707l-.922 1.724" stroke="#373E4B" stroke-width="2" stroke-linecap="round" stroke-linejoin="round"/>
        <path d="m363.863 645.994-.885.218-2.005.153-2.744-.199-3.42-.549-3.989-.914-.031.017-11.888-3.503-15.517-2.787" stroke="#373E4B" stroke-width="2" stroke-linecap="round" stroke-linejoin="round"/>
        <path d="m363.661 645.937-.689.272-10.914-2.144-13.128-2.886-15.549-2.749M656.375 308.78l-14.81 23.676-11.961 1.874-.311.434-29.972 41.863-14.03 38.016-12.02 2.888-7.58 5.763-12.147 6.782-19.598 7.238-30.212 6.427-42.591 3.469-52.06-1.644-53.505-8.186-44.271-12.837-34.371-7.203-40.869 4.616-54.503 10.055-51.775 4.84-34.58-2.523-28.684-2.918-19.978-3.859M21.59 198.391l1.437-2.804 37.9-29.681 27.377-20.396M353.981 76.538l1.522 2.583 1.266 3.198 8.73 17.704 5.921 6.128.335.499.466.701 6.845 10.236 11.063 16.545M360.681 86.591l6.921 9.22 2.754 3.322 3.148 3.414 9.468 9.318 4.097 3.791" stroke="#373E4B" stroke-width="2" stroke-linecap="round" stroke-linejoin="round"/>
        <mask id="k" style="mask-type:alpha" maskUnits="userSpaceOnUse" x="-1" y="-1" width="695" height="667">
            <path fill-rule="evenodd" clip-rule="evenodd" d="M-.003 665.128V-.002h693.657v665.13H-.003Z" fill="#fff"/>
        </mask>
        <g mask="url(#k)">
            <path d="m388.542 116.203.851.189.327-.019.108.015 26.887 3.886 2.066-.132 16.125-4.759 17.984-6.078 2.863-.66 50.917-11.76 53.424 6.307 40.361 30.365 30.47 42.458 21.174 49.483-5.74 57.032-30.852 53.394-14.514 1.222-4.578 8.36-20.004 36.505-14.279 3.633-21.228 3.877-31.497 3.546-44.099 2.102-53.945-.527-55.095-3.807-45.153-6.04-33.858-4.128-39.203 1.308-53.228 3.952-51.178 1.586-35.263-1.614-32.363-1.574-24.739-2.073-13.984-2.673-1.808-3.164-7.072-43.028-4.037-28.226-2.514-17.569 11.24-44.075 30.854-34.843 33.968-28.336 27.289-29.956 19.835-39.116 21.009-38.59 2.076-3.816 11.635-12.452 2.192-2.344 14.775-15.813 4.159-4.453 4.792-4.184 5.698-2.933 2.224-.916 10.186-2.648 4.173-2.407 13.088-7.554L248.54 3.07l9.147-1.227 10.955 1.602" stroke="#373E4B" stroke-width="2" stroke-linecap="round" stroke-linejoin="round"/>
        </g>
        <path d="m280.968 8.282 16.068 6.951.595.26 5.726 2.475 6.066 3.707M370.361 99.132l1.419 1.713 10.935 13.198M373.507 102.548l3.509 3.807 7.809 8.472M382.974 111.865l3.709 3.641" stroke="#373E4B" stroke-width="2" stroke-linecap="round" stroke-linejoin="round"/>
        <mask id="l" style="mask-type:alpha" maskUnits="userSpaceOnUse" x="-1" y="-1" width="695" height="667">
            <path fill-rule="evenodd" clip-rule="evenodd" d="M-.003 665.128V-.002h693.657v665.13H-.003Z" fill="#fff"/>
        </mask>
        <g mask="url(#l)">
            <path d="m14.383 305.159-4.318-10.489-3.324-8.076.21-28.991.132-18.223 27.782-37.772 36.91-28.766 31.487-28.624 24.278-35.829 11.004-15.786" stroke="#373E4B" stroke-width="2" stroke-linecap="round" stroke-linejoin="round"/>
        </g>
        <path d="m349.177 71.591 9.546 19.952 6.779 8.485.718 1.839.272.697.421 1.076 12.844 32.894 15.935 19.961M28.633 385.19l-1.382-3.862-1.758-4.909M77.803 493.107l-11.47-16.548-6.245-9.009-4.224-6.092M376.381 648.376l-12.445-2.404M154.174 70.173l1.318-1.163 4.944-4.361 9.345-8.242M330.188 638.142l-1.113-.272-5.689.561-2.729-2.624" stroke="#373E4B" stroke-width="2" stroke-linecap="round" stroke-linejoin="round"/>
        <path d="m329.073 637.869-1.09-.266-1.139-.279-1.225-.299-1.31-.322-1.332-.325-1.253-.306M367.14 96.284l9.385 14.077 3.409 2.649" stroke="#373E4B" stroke-width="2" stroke-linecap="round" stroke-linejoin="round"/>
    </g>
</svg>
