<svg width="1440" height="942" fill="none" xmlns="http://www.w3.org/2000/svg"><g opacity=".5" stroke="#373E4B" stroke-width="2" stroke-linecap="round" stroke-linejoin="round"><path d="m804.153 925.407-20.35-7.921-54.493-21.214-12.048-4.687-48.829-17.985-51.565-20.508-25.536-9.321M296.107 682.155l-69.775-7.269M1038.29 683.021l-36.44 64.121-36.719 67.146-51.021 6.724-49.097-62.762-48.6-64.094-48.255-39.575-47.666-9.544-46.804 8.611-45.904 1.98-45.139-8.08-44.498-18.191-43.972-28.172-43.577-38.792-43.317-50.032-36.773.055-37.07 9.016-37.254 19.326-37.384 28.845-37.541 35.683-37.796 38.708"/><path d="m965.129 814.284-36.839 62.159-36.933 52.083-36.766 12.369-36.997-21.852-4.196-1.735-33.555-21.646-7.268-2.227-31.308-9.599-12.212-3.746-38.702-18.294-10.256-2.29-39.739-8.85-17.157-2.411-3.593-.504-26.956-3.789-1.321-.185-4.617-.951-43.517-8.979-47.411-19.974"/><path d="m891.36 928.526-50.182-35.542-49.281-60.914-48.785-54.45-48.226-37.28-47.481-16.16-46.598-4.339-45.828-11.195-36.938 32.713-37.487 23.969-32.375 24.32M1074.14 631.925l-35.85 51.096-51.486 8.702-50.718 24.652M981.202 496.524l-33.218 53.059-33.383 50.463-20.189 14.369M438.56 789.403l-41.538-43.692-39.455-14.582M55.809 501.135l37.274-47.843"/><path d="m731.7 692.259-36.813 48.088-37.106 53.511-37.407 52.808-38.254-6.363-18.136-9.93-29.273-16.035-38.924-.468-46.595-18.386M1486.34 489.821l-15.91 1.428-38.54 3.455-48.36 6.878-11.57 2.318-59.29 16.36-23.75 8.434M741.271 883.822l-4.672-2.022-13.747-5.943-32.499-14.062M97.362 536.69l37.499-44.951 37.319-41.6M1057.92 590.212l50.82 22.158M928.29 876.443l-50.505-15.771-49.11-68.772-48.713-60.487-48.261-39.156M854.594 940.896l-50.442-15.489-37.184-19.419-32.182-21.983-5.732-3.915-49.868-11.3-48.953-11.795-13.367-3.904-2.229-.242-18.696-4.975-27.521-7.32-25.222-6.712M1001.85 747.144l-51.319 10.908-49.691-25.016-48.466-64.683M1241.65 565.473l-51.38 3.137-18.03 8.372-23.7 11.009"/><path d="m1457.59 491.05-51.14 5.936-29.46 5.522-29.86 5.519-30.33 6.666-20.04 9.302-4.1 2.222M1486.34 489.821l-50.76.449-1.78.41M1057.92 590.207l-35.19 41.531-35.924 59.988-36.275 66.329-36.419 62.957-36.328 39.659-36.608 32.313-27.197 23.821"/><path d="m1087.99 576.914-46.6 2.106-5.63 3.584-1.27 1.916-27.48 21.891-50.156 32.452-34.355 10.388-34.755 4.859-35.377 14.242-48.216-38.376-47.716-6.631-24.143 6.479-6.385 1.711-16.35 4.385-35.869 17.721-36.277 28.414-45.861-4.175-36.574 30.764-45.208-22.128-37.127 19.004-37.396 28.692-44.489-23.376-44.064-32.068-44.042-50.827-43.843-58.339-43.579-61.884-43.048-57.579M1514.84 485.742l-50.39-3.869-28.87 8.399-49.81-.594-9.1 3.624M854.233 360.878l43.068 26.668 43.427 37.313 44.999-13.39 28.603-5.501"/><path d="m791.875 613.76 47.717 4.562 48.159 35.788 48.185 62.062M1123.12 546.959l41.69 26.213M981.201 496.524l46.869 5.327 47.38 15.21 47.67 29.899 32.05-17.361 31.15-3.089 14.23 6.811 27.5 13.162 1.36.654M428.032 678.66l-37.275 32.179-38.68-5.253-39.66-16.772-11.01-4.57-4.949-2.053M709.554 635.921l-45.946 6.16-45.131-4.461-44.446-14.892-43.873-24.586-35.986 3.037-36.411 8.129-43.737-43.011-36.899 11.822-37.137 20.844-37.34 28.978-37.561 34.527-38.755 12.418M422.194 245.063l37.914 30.07 38.238 24.148 38.6 17.023 39.127 18.32 39.589 10.535 40.166 11.521 40.742 8.144 41.371 3.747 42.014 5.984 42.592 15.463 43.04 29.003 43.704 21.378 44.941-12.299 45.735-9.539 46.293 1.767 46.54 20.849 46.65 37.847 46.88 47.486 30.29 7.701 24.35 1.352 11.63.644M-130.134 553.602l37.104-30.611 36.383-36.801 36-38.024 35.911-33.695 36.01-25.059 31.084-12.57M390.408 262.173l-37.515-29.899-32.553 1.469-36.972-23.763M819.025 204.276l29.274-39.787 29.137-43.179 28.941-41.294 28.654-34.382M741.319 175.201l29.148-39.568 29.01-45.12 28.862-45.609 28.657-40.629M767.848 620.227l-44.706-6.081-44.365-11.256-43.682-15.84-43.103-25.159-42.596-31.375-42.18-39.093-34.769-37.298-7.052-7.567-28.401-28.958-4.632-4.724-7.209-7.349-1.104-1.125-36.339-22.311-4.169-2.56-18.352-8.361-17.094-7.791-21.132-11.313-5.887-2.765-9.087-5.251M817.595 919.044l-4.196-1.735-46.436-11.321-49.704-14.405-38.072-22.789-38.83-18.131"/><path d="m-165.319 453.006 36.363-25.18 35.521-33.096 35.487-28.211 35.624-19.456 35.713-10.367 35.607-3.991 35.261-1.885 34.73-3.78 33.559-22.059 32.84-32.255 32.668-29.55 32.648-21.801 32.659-11.403 32.465-5.824 37.065 28.123 31.854-14.497 37.447 27.287 31.534-13.368 37.857 27.883 31.184-13.19 30.88-11.042 30.55-10.971 30.121-26.992 29.908-18.352 29.652-6.294 29.324-7.474 29.068-36.687 28.905-42.814 28.754-44.294L818.5 1.002l38.494 3.27 38.88 14.531 39.159 26.832 39.379 37.279 39.618 43.2 40.13 36.975 40.75 29.304 41.35 24.601 41.94 21.97 42.49 20.899 43.03 21.118 43.52 22.405 43.97 24.417 45.18 11.997 45.8 12.502 47.03 2.908 47.92.754 47.9 12.876M852.369 668.352l-35.957 25.8-36.45 37.261-36.847 46.206-37.18 50.686-25.837 31.211M1208.32 597.244l-33.59 29.615"/><path d="m347.808 194.109 36.943 23.668 31.633-9.289 37.34 23.21 31.259-9.87 30.952-7.439 30.618-6.54 30.21-13.393 29.884-16.46 29.635-7.714 29.297-14.011 29.001-32.649 28.814-38.898 28.638-41.04 37.898-2.213 38.407 3.434 38.844 12.365 39.196 22.75 39.478 32.226 39.76 38.413 40.235 34.287 40.82 28.29 41.39 24.388M798.498 613.657l-41.387-10.217-44.349-14.879-43.679-17.034-43.037-18.107-42.475-24.165-41.977-30.038-3.184-2.771-19.325-16.821-19.045-16.569-9.806-8.471-31.27-27.013"/><path d="m-240 491.772 37.476-20.437 36.554 25.795 37.059-21.568 36.028-32.081 35.686-32.302 35.663-26.73 35.764-18.004 35.798-9.392 35.633-3.628 35.254-2.038 34.4-11.973 4.212-4.04 29.035-27.838 33.014-30.63 32.946-24.301 32.935-14.548 32.877-4.314 37.562 29.821 38.047 33.144 32.379-5.056 31.787-16.522 31.478-15.553 38.297 29.591 31.14-14.684 30.829-13.395 30.433-25.683 30.159-28.388 29.928-19.866 38.658 19.076 39.099 28.206 39.513 31.224 40.014 24.186 40.834-1.481 41.552-5.744 42.109 1.451 42.408 17.489 42.56 33.792 43.79 8.161 43.9 25.189 44.36 28.309 45.52 12.924 45.65 25.732 46.46 21.396 29.04-14.268 28.7-14.003 28.39-14.373 28.12-15.189 47.65 6.491 28.68-30.538 47.91 13.926 47.6 28.811 47.98 32.304 27.13-14.568M1123.12 546.959l-31.52 29.671-.13.128"/><path d="m-240 491.772 36.21 21.748 36.596 20.332 37.06 19.75 36.437.894 36.13-15.546 9.12-11.129 27.58-33.662 22.691-28.736 13.653-17.291 21.214-24.619 15.043-17.456 31.478-29.392 1.938-1.791 2.95-2.082 8.068-4.29 1.485-1.01 10.503-6.328 15.274-8.858 1.217-.704 31.086-12.04.383-.007.651-.14 5.863-2.521 40.014 19.499 36.529-15.941 36.154-14.295 5.32 2.879 35.46 21.551 4.446 5.482 24.144 29.758 13.445 16.568 36.377 16.796 35.765 16.023 35.111 11.342 34.644 16.494 34.024 11.009 33.268-12.368 32.839-18.033 32.481-18.64 32.1-31.021 31.823-29.174 31.525-18.996 31.148-7.443 30.733-.445 30.484-16.438 30.171-16.834 29.855-16.311 29.478-11.53 41.553-5.161 42.133-.121 42.446 13.924 42.59 30.341 29.16-15.454 42.95 32.408 44.05 15.672 44.2 27.53 45.48 10.759 45.64 22.225 46.36 19.832 47.32 14.17 28.33-14.434 28.51-22.808 47.89 14.498 28.71-31.111 27.74-20.261 47.59 27.668 47.38 39.141"/><path d="m410.919 182.855 36.825 20.275 37.244 18.693 37.778 24.568 38.254 28.092 38.649 23.689 39.063 13.656 39.587 7.49 40.166 11.664 40.753 7.401 41.425-.136M668.432 873.599l-38.199-16.604M13.392 336.7l36.635 20.356 36.68 11.057 10.487-.6M502.75 153.247l36.787 19.947 37.231 21.263 37.55 2.93 38.125 9.633 38.658 19.809 39.118 27.855 39.553 29.75M854.235 360.878l-31.691 29.139-32.035 37.715-32.301 40.172-32.527 29.34-32.84 18.371-33.213 18.863-33.582 18.94-34.056 8.471-34.543 4.377-35.083-.205-35.629-2.497-36.141-1.175-36.574 3.907-43.516-53.892-43.35-62.44-42.73-53.728-41.184-20.071-40.596-19.782-36.956 16.132-37.398 16.323-39.622-12.797-36.933 30.015-36.286 26.597-36.096 15.523-36.111 2.955-36.01 34.742-36.601 30.571-37.824 17.408"/><path d="m-202.524 471.337 37.203-18.332 36.41 22.557 36.143 10.304 36.123.327 36.03-12.796 24.074-27.204 11.997-13.547 36.095-34.04 29.82-21.065 1.84-.879 2.633-1.811 2.257-2.064 7.443-4.314 2.106-.981 12.413-5.674 15.634-9.029 30.414-13.235 6.517-2.663 36.56-14.17 10.709 4.746 9.082 4.033 20.193 8.955 40.619 19.55 41.492 29.873 36.627 53.646 6.234 9.131 37.669 52.139 5.465 7.564 36.355 5.748 35.837 7.407 35.254 5.027 34.67-.021 34.18-1.262 33.613-16.157 33.222-15.47 32.845-19.258 32.497-28.091 32.235-39.75 31.97-35.971 31.629-25.359 8.272-3.26 22.92-9.04 30.7-1.443 42.749.726 16.294 5.232 26.897 8.645 43.433 31.014 30.44-15.61 30.02-12.117 43.78 31.875 44.49 26.45 45.54 13.716 45.71 26.161 29.51-15.89 29.1-13.77 46.4 20.897 47.43 13.919 48.38 9.344 28.45-12.228 49.06 9.938 27.92-10.554 49.36 15.32 27.34-8.434"/><path d="m-203.79 513.522 37.818-16.393 36.603 19.316 36.337 6.547 36.13-7.303 36.033-21.528 36.437-28.856 36.552-47.559 36.545-41.707.457-.287 11.284-7.085 2.342-1.47 7.315-5.379 15.637-9.031 39.984 19.73 40.567 20.019 36.986-16.363 36.555-16.172 36.314-9.413 7.24 3.739 29.357 15.152 16.097 19.133 25.717 30.575 4.483 5.921 35.148 46.403 2.704 3.573 35.495 10.725 34.866 5.61 34.382 7.791 33.741-5.193 33.239-15.031 32.84-19.534 32.482-21.633 32.156-36.554 31.892-32.701 31.568-21.62 31.157-8.691.808-.027 32.857-1.054 8.443-.273 42.701 6.299 43.118 21.233 43.371 37.466 42.362 4.072 17.14-3.292 5.54-.109 25.2-.492 8.23 2.203 1.96.526 9.49 2.542 5.73 1.536 20.5 5.492 12.89 10.138 16.36 12.87 16.56 13.019 15.41 16.23 19.78 20.839 10.72 11.293 29.36 12.971 48.02 5.257 30.1-16.781 29.7-15.663 29.31-14.237 28.93-13.601 28.6-13.756 48.23 10.869 28.18-13.154 48.8 12.541 27.67-11.847 28.15-23.45 27.74-21.404M649.42 81.112l28.464-32.374 36.802-1.333 28.356-34.663 37.453-7.279"/><path d="m379.582 190.034 36.802 18.455 31.36-5.353 31.014-4.625 37.18 15.883 37.711 20.957 38.201 25.742 38.606 18.985 39.092 20.268 39.587 14.674 40.13 13.693 40.711 9.229 10.84.266.575.015"/><path d="m250.704 221.383 36.756 16.677 37.487 25.906 32.947-.391 32.512-1.403 37.914 29.486 38.095 15.942 31.93-8.319 31.538-10.109 38.612 18.654 39.074 14.056 31.166-10.049 30.814-11.49 30.476-22.177 30.195-23.481 29.91-20.256 29.576-11.881 39.478 29.045 39.993 22.713 40.793 2.527 29.111-8.679 29.106-24.757 28.98-30.583 28.683-27.871 28.31-21.859M1174.73 626.854l-34.62-20.965-31.37 6.482-34.6 19.553-51.41-.19-50.958 24.809-35.565 59.635-35.369 16.857-35.827 25.216-36.338 33.65-36.775 40.169-37.155 43.303-13.308 5.755"/><path d="m532.797 149.968 36.71 15.523L606.647 178l37.578 1.041 38.146 8.117 29.64-6.828 29.308-5.123 38.617 12.575 39.094 16.495M677.885 48.742l28.271-30.839 36.887-5.163M1037.01 402.567l-34.16-21.491-30.881 20.819-31.241 22.964-31.444 15.539-31.898 22.826-32.292 28.584-32.626 31.251-32.924 30.243-33.21 21.993-33.571 13.265-33.989 14.329-34.418 11.766-34.915 4.273-35.413 3.798-35.88 6.627-36.303 12.404-36.756 14.03-37.052 22.875-44.059-30.211-43.989-49.488-43.801-58.202-43.582-63.391-42.652-47.712-41.131-20.559-40.536-20.255-37.845 16.517-37.2 39.262-37.034 48.95-37.448 19.839-36.325 25.538M620.744 111.035l28.675-29.917 36.728 3 28.541-36.706 37.34-3.726 28.467-38.227L818.502 1M51.554 398.606l-36.287 15.866-36.23 3.828-36.232-7.12-36.238-16.445"/><path d="m-128.957 427.833 36.074 15.649 36.125 7.643 35.793-32.823 35.822-25.906 35.924-16.535 35.923-7.746 8.838.356M562.47 143.334l36.67 12.844 37.148 14.108 37.59 2.463 38.134 7.585 38.631 16.855 29.297-9.41 29.223-40.684 29.092-45.268 28.928-44.557 28.691-38.465"/><path d="m591.803 134.18 36.655 11.354 37.127 10.74 37.617 8.994 38.115 9.933M1025.01 583.908l-6.04 3.371-.75.417-17.78 9.912-9.132 5.087-21.509 22.577"/><path d="m1174.73 626.857-32.24-21.461-30.25-17.161-20.28-11.5-.66.174-33.39 13.298-50.9 16.206-35.24 50.131-49.272-7.292-48.074-32.349-34.831 1.417-35.44 11.658-35.999 24.599-36.455 37.682-47.584-12.863-46.702 2.663-36.606 37.782-36.908 43.529-37.463 27.543-4.581-2.555-41.303-23.029-45.306-31.116-38.225 11.5-22.941-20.486-22.005-19.646-3.616-1.827-40.229-20.339-28.574-13.869-14.57-7.078-43.821-57.18-43.509-59.469-42.893-54.08-41.775-38.447M1038.05 239.083l28.62-25.848 28.24-20.844M185.385 272.73l36.191 4.178 37.07 14.185 37.497 11.61 37.896 6.768 38.933 25.668 39.686 38.339 40.13 39.922 33.393-8.882 33.017-7.091 32.511-16.077 32.169-14.842 31.78-21.349 31.496-17.209 31.174-8.628 30.813-4.299 30.463-11.198 40.099 16.264 40.764 1.417 41.432-1.028 30.236-19.687 29.915-18.179 29.481-10.942 29.056-6.121 28.683-4.409 28.78-22.056 41.53 20.074 42.49 6.508 42.83 14.715 43.06 24.207 43.42 28.55 44.19 23.082 45.43 8.829 45.69 17.423 46.37 16.753 28.44-25.874 47.88 1.824 27.76-19.206"/><path d="m152.549 304.985 36.017 2.553 36.834 9.864 33.248-26.31 33.185-18.372 38.006 28.211 37.951 8.472 1.52.946 37.34 23.239.967.855 38.573 33.937 39.996 36.138 40.351 30.461 32.929-10.438 32.481-17.829 32.102-23.307 31.78-26.723 31.5-17.905 31.162-7.791 30.779-2.271 30.43-8.627 30.134-15.104 29.823-15.144 29.522-15.533 29.361-24.975 29.238-32.846 29.054-34.425 28.784-31.407 28.414-24.547M1343.19 501.079l-35.87-.872-47.82-9.156-23.71 16.182M698.975 635.381l-35.368 6.7-35.827 13.542-36.231 22.257-45.152-13.38-44.554-22.743-44.078-32.449-36.753 15.559-37.036 23.584-37.282 30.317-38.464 4.651-39.61-12.769M390.408 262.172l31.785-17.108M365.185 371.169l-26.112-26.673"/><path d="m723.399 631.308-34.665-3.167-44.372-13.483-43.735-20.776-43.18-27.612-41.276-34.524-1.447-1.212-42.376-44.72-42.068-50.596-34.026-37.918-7.548-8.411-7.354-4.619-8.686-5.45-24.574-15.439"/><path d="m985.731 411.469-31.5 16.63-32.053 28.377-32.491 37.153-32.8 40.44-33.031 37.524-33.222 22.587-33.527 9.266-33.968 10.703-34.409 13.995-34.885 4.109-35.372 5.369-35.837 9.924-36.242 16.954-36.629 22.019-44.681-30.731-44.081-30.919-43.882-46.749-43.686-56.688-43.505-63.652-42.522-44.931-41.162-20.313-37.427 16.561-37.879 16.762-37.86 27.435-39.839-8.673-37.677 20.686-9.988 13.051-26.816 35.051M85.15 374.872l-34.372.989-36.547-9.418-36.555-19.38M769.77 284.436l29.871-18.78 29.542-14.061 29.383-26.508 29.281-36.998 29.123-39.288 28.889-36.551 28.553-29.335"/><path d="m1338.12 502.443-25.21 11.663-5.94 2.748-.34.16-1.59 1.047-7.82 5.153-3.81 2.514-.74.492-3.76 2.474-14.46 9.536-32.8 27.243-33.33 31.771-50.97-7.53-10.04-1.151-22.92-2.637-3.23-.707-29.19-8.482-.66.174h-3.32l-.14-.037-13.06-3.324-33.39 5.467-2.52 2.003-3.12 1.583-7.41 2.582-1.92.905-19.15 9.055-15.968 7.548-48.97 22.012-33.617-8.545-14.311-1.744-33.293-4.067-21.429 1.793-.857.071-12.091 1.012-13.941.218-14.302.218-6.624.103-23.945 6.478-11.489 3.108-5.61 3.379-10.198 6.152-20.146 12.153-36.374 34.358-36.709 44.785-36.993 50.546-37.357 44.773-38.346-5.161-23.744-12.052-22.891-11.62-38.882 4.819-5.679-.872-4.108-.631-35.768-5.465-28.963-36.08-17.103-21.305-30.938-28.995-13.877-13.009-11.585-4.849-4.883-2.1-27.668-11.526-42.289 4.238-42.863-30.893-43.39-56.601-42.715-50.701-41.553-35.555-39.603-7.567M1136.26 216.995l-28.2 20.629M315.83 204.155l31.978-10.046 31.774-4.078 31.332-7.178 30.855-14.255 36.987 29.909 30.518-14.581 37.279 23.923 37.64 16.529 38.085 11.032 38.626 18.352 39.116 24.402 39.58 25.658 30.171-19.39 40.063 20.549 40.801-.313 41.497-3.88 42.047 3.988 29.975-20.711 29.506-12.518 29.04-6.36 28.62-3.262 28.26-2.769 28.48-21.533 41.97 22.033 42.79 13.863 43.17 19.185 43.45 25.971 43.96 26.324 45.42 8.019 45.74 14.965 27.62-15.68M1137.83 429.945l29.18 16.632 45.79 25.535 46.7 18.933 29.88-18.467 47.65 11.968 48.73 5.13 29.12-11.881 49.57 4.07 28.49-8.684 50.08 7.9"/><path d="m1489.22 355.21-27.72 18.136-46.94-5.364-27.87 14.485-28.11 13.535-28.41 12.948-28.73 12.941-45.63-24.275-45.5-11.865-44.25-28.716-44-19.579-43.36-21.639-29.58 19.529-29.49 3.168-43.083-13.766-30.077 11.388-30.245.044-30.744 7.015-31.248 17.683-42.648-11.682-42.075-2.247-41.415-1.121-40.767-7.053-40.177-10.824-39.58-6.071-31.498 12.742-31.876 10.109-32.211 12.712-32.648 8.416-28.884-22.508-10.512-8.191-26.978-15.762-11.796-6.893-8.111-3.153-29.988-11.654-38.123-33.736-33.116 8.755-37.306-20.11-36.467-9.427M81.369 377.541l-30.095 11.87-36.416 2.985-36.393-7.946-36.41-17.925M441.772 168.598l30.615-9.976 36.887 25.306 30.255-10.734 29.967-7.707 29.634-9.31 29.319-10.643 28.959-27.15 37.169 5.24 37.692 4.956 38.201 7.052 38.691 11.458 39.141 17.403 39.547 23.597 39.931 28.396 40.404 26.909 41.076 17.745 42.06.789 42.51 7.717 42.75 19.258 28.31-8.526 27.93-6.852 27.87-13.661"/><path d="m1351.21 327.806-27.8 17.195-27.84 11.217-28.11 10.175-28.41 9.573-28.74 9.781-29.14 11.256-29.59 14.669-26.99 11.337M1307.24 303.388l-27.81 15.289-28.05 14.456-28.1 7.811-28.43 7.497-28.8 8.595-29.24 11.664-29.73 16.527-30.11 18.867-4.57.715M472.389 158.623l30.361-5.377 30.047-3.279 29.674-6.633 29.331-9.156 28.941-23.145 36.677 7.35 28.728-34.269 37.244.607 37.781 1.045 38.303 4.746 38.776 11.313 39.183 19.488 39.533 27.485 39.863 33.265 40.33 30.751 40.879 26.27M1307.28 514.561l-30.06 2.426-22.13 12.671M1396.39 339.8l-27.57 13.217-27.82 12.028-28.07 11.083-28.39 10.598-28.73 10.889-29.12 12.317-29.58 15.457-29.93 21.059M1263.72 280.981l-27.73 11.726-28.03 11.882-28.44 14.508-28.72 13.673-28.75 4.687-29.14 6.052-29.61 9.84-43.67-14.834-29.883 4.033-43.276-6.407-16.11-3.182-26.483-5.232-30.398 7.727M426.189 405.825l26.6 7.575 40.439 33.088 40.836 27.573 41.275 19.96 41.84 19.076 42.45 21.382 43.044 21.084 43.659 19.729 44.304 18.883 44.984 16.832 4.624-3.215 28.603-19.892 33.193-44.701 33.019-48.648 46.142 1.972 32.839-45.793 32.22-30.404 31.38-11.429 46.18 29.636 30.11 11.865 29.41 17.994 14.66 13.854 22.66 21.42"/><path d="m238.389 324.489 23.848-13.278 37.848 6.271 38.989 27.014 33.901-9.357 33.67-1.551 33.298 1.572 32.846.734 39.199 21.549 39.723 23.902 40.233 25.367 40.704 18.313 41.247 12.799 41.857 12.461 42.459 17.623 43.053 19.63 43.829 4.275 44.592 1.819 45.373.923 32.705-44.046 32.197-31.945 23.28-11.734 8.23-4.152 29.29 3.946 16.88 2.277 16.68 2.998 13.8 2.48 16.47 8.632 13.24 6.938 24 20.275 7.3 6.165 14.21 12.004 29.47 3.718 30.02-20.56 46.55 21.028 29.43-15.525 47.52 13.256 48.56 7.49 28.76-11.748 49.29 7.135 28.21-9.425 49.7 11.718 27.59-6.951"/><path d="m387.706 382.092 24.953-8.612 33.527-5.098 33.153-2.519 39.859 31.567 40.265 27.114 40.703 19.114 41.248 15.797 41.839 18.917 42.43 18.871 43.059 13.457 32.522-23.166 32.271-31.647 32.051-36.864 31.714-31.477 31.296-23.115 30.819-14.371 30.333-7.521 43.542 22.925 41.13 36.373 2.55 2.256 6.2 2.789 4.45 2.002M108.155 361.16l-22.5-7.73-36.662-20.718M771.754 892.601l-17.011-17.229-48.809-47.07-48.159-34.445-47.367-19.133-46.511-11.352-45.861-22.019-45.392-35.832-44.616-26.863"/><path d="m280.906 328.879 19.182-11.397 33.957-8.011 33.746-.069 33.384 3.103 32.919 2.229 32.324-7.136 38.622 17.536 39.159 19.603 39.685 21.775 40.166 16.895 40.698 10.595 41.304 7.268 41.936 9.265 42.526 17.203 43.025 28.154 43.85 7.338 44.788-6.75 45.591-5.971 46.282.226 46.78 11.965 47.07 26.725 47.28 40.177 45.63 31.989.38.06 21.51-11.345 6.72-3.167 23.18-10.93 2.01-.946 14.14-5.114 17.23-6.625 11.12-4.496 11.26-4.551 29.77-12.031 5.07-1.361 25.72-6.931 7.76-.849 22.35-2.443 29.52-.257 5.26.082 23.79.368 28.75-1.231 28.5-4.077 28.17-4.654 27.84-5.608"/><path d="m1266.51 530.582-19.76 3.849h-.09M326.958 352.067l12.114-7.57M592.654 843.957l-10.531-3.655-38.922-6.459M1035.8 581.664l-10.79 2.243-10.91 4.593-.92.391-6.19 2.603-8.363 3.518-22.62 9.521-3.662 1.257M216.039 323.478l9.359-6.076 36.839-6.19 33.908-8.511 33.693-1.772 33.233-3.231 32.872-.981 38.148 18.021 38.7 21.159 32.25-10.764 31.905-8.824 31.546-8.483 31.178-9.653 30.782-18.094 30.456-26.318L691.1 226.83l29.93-20.607 29.612-9.038 39.063 25.364 29.32-18.273 39.542 20.81 39.972 24.247 40.543 18.82 41.5-2.603 42.118-.367 42.49 10.344 28.63-5.886 28.25-3.981 27.97-6.003 28.16-20.692"/><path d="m1014.1 588.5-4.94.965-9.256 4.207-23.897 10.861-1.508.904M839.69 612.14l-4.067-1.128-15.798 1.679-7.029.747M623.203 848.25l-2.827-1.585-.032-.019-47.289-27.148-7.819-4.796-38.799-23.789-38.367-.25-45.372 3.097-39.069-5.248M123.429 352.302l-2.515-.913-36.656-20.565M156.095 339.415h-.781l-36.324-12.373M1121.16 585.213l3.23.707 22.76 18.51 14.67 11.928 12.91 10.496M1368.91 494.15l-18.06 7.115-28.98 11.429-5.07 1.998-11.76 3.366M1399.02 490.858l-45.15 14.942-6.74 2.229-5.69 1.875"/><path d="m1274.45 538.23-42.79 9.983-8.96 2.09-20.88 11.789-11.55 6.514-16.2 10.385-16.72 10.719-10.04-1.151-22.48-2.277M949.671 635.478l-15.268-7.202-25.682-12.115-34.298.741-47.68-3.677M1428.54 490.601l-33.24 7.68-18.31 4.23-35.06 7.291-1.37.389-6.77 2.232-37.5 12.355"/><path d="m1200.85 561.828-13.16 6.938-.87.46M1242.44 531.154l-19.72-14.996-22.88-17.397-29.79-14.535-23.51-23.239-22.72-22.454-31.03 2.644-31.97 21.521-32.76 39.151-33.274 50.373-46.806-2.637-45.941-6.383-45.155-9.132-44.418-11.009-43.725-12.36-32.861 23.654-33.207 21.209-33.59 15.964-33.988 15.52-34.468 6.834-34.975 2.953-35.495 1.308-40.524-32.271-2.898-2.305-40.586-42.809-2.516-2.656-41.201-53.411-1.676-2.175-5.392-7.606-36.707-51.785-.517-.726-36.861-12.525-36.861 6.37-37.015 16.603-37.453 16.805-37.771 20.493-41.24-24.286-40.5-20.493-38.321 12.386-36.645 30.392-36.095 25.258-11.17 13.023-25.109 29.264-11.186 11.8-25.608 27.006M1306.63 517.016l-6.94 2.431-27.55 9.663-3.4 1.038-14.14 5.11M1084.15 575.386l-5.93-2.392-35.9-14.474-23.04 21.499-10.12 9.444-47.827 10.662-13.873 8.695M834.706 336.943l1.642-.994 25.548-15.47 41.979 7.249 30.303-22.948 42.372 19.963 30.01-23.189 29.55-16.083 29.08-9.938 42.67 24.825 28.72-11.453 42.93 30.185 43.76 21.851 44.19 25.454 45.46 9.73 45.66 19.874 46.35 18.41 47.26 14.114 48.08 12.147 28.31-20.455 48.16 21.147 49.02 18.73 27.1-9.878"/><path d="m732.064 629.865-8.664 1.449-24.426 4.072-45.121-3.136-44.404-13.322-43.798-22.091-37.732-26.823-5.553-3.946-1.467-1.387-36.095-34.127-5.332-5.043-1.695-2.005-36.016-42.612-4.903-5.8-36.095-12.576-36.613-9.867-36.991-2.679-37.226 7.808-37.326 19.589-37.379 30.354-37.469 38.1-37.679 41.573M1212.66 529.974l-5.17-5.559-35.27-37.848-2.17-2.337-30.6-5.2-31.55 10.395-32.45 27.635-33.13 41.462-47.53-6.303-33.455 47.904-46.733-.076-45.755-12.143-44.999-16.311-44.304-18.292-43.664-18.949-43.04-18.741-42.429-17.985-41.84-18.64-41.238-17.294-40.797-26.713-33.308 11.508-34.267-18.919-17.007-11.285-15.763-10.465-2.145-1.417-35.335-15.512-8.078-4.36-5.005-2.698-22.923-12.357-23.678-14.778-3.135-1.962-4.817-3.434-9.087-5.251-31.34-15.015-5.32-2.879-39.27 3.723-22.992-4.47-13.872-2.692"/></g></svg>